<?xml version="1.0" encoding="utf-8"?>
<!-- Generator: Adobe Illustrator 27.8.1, SVG Export Plug-In . SVG Version: 6.00 Build 0)  -->
<svg version="1.1" xmlns="http://www.w3.org/2000/svg" xmlns:xlink="http://www.w3.org/1999/xlink" x="0px" y="0px" width="527px" height="100px"
	 viewBox="0 0 526.8 100.4" style="enable-background:new 0 0 526.8 100.4;" xml:space="preserve">
<style type="text/css">
	.st0{fill:#FFFFFF;}
	.st1{fill-rule:evenodd;clip-rule:evenodd;fill:url(#SVGID_1_);}
	.st2{opacity:0.2;fill-rule:evenodd;clip-rule:evenodd;fill:#131928;enable-background:new    ;}
	.st3{fill-rule:evenodd;clip-rule:evenodd;fill:url(#SVGID_00000148636435327599301180000015558666993225012658_);}
	.st4{fill:#221D19;}
	.st5{fill:#241F1A;}
	.st6{fill:#242221;}
	.st7{fill:#A98458;}
	.st8{fill:#978273;}
	.st9{fill:#606271;}
	.st10{fill:#9E8466;}
	.st11{fill:#240F0C;}
	.st12{fill:#7B2116;}
	.st13{fill:#611E13;}
	.st14{fill:#2E1612;}
	.st15{fill:#5C1C0F;}
	.st16{fill:#271B17;}
	.st17{fill:#64401A;}
	.st18{fill:#38322E;}
	.st19{fill:#37312C;}
	.st20{fill:#5D3F23;}
	.st21{fill:#2E2A29;}
	.st22{fill:#C83226;}
	.st23{fill:#D42D25;}
	.st24{fill:#672316;}
	.st25{fill:#93281E;}
	.st26{fill:#521C10;}
	.st27{fill:#821818;}
	.st28{fill:#ED3624;}
	.st29{fill:#7E1716;}
	.st30{fill:#D12D25;}
	.st31{fill:#5B1C0F;}
	.st32{fill:#E13225;}
	.st33{fill:#B32924;}
	.st34{fill:#ED3724;}
	.st35{fill:#E23125;}
	.st36{fill:#7F2920;}
	.st37{fill:#1B3921;}
	.st38{fill:#A5ABA7;}
	.st39{fill:#C4B6B5;}
	.st40{fill:#782F22;}
	.st41{fill:#8E897C;}
	.st42{fill:#ABADA4;}
	.st43{fill:#DD3226;}
	.st44{fill:#9B1F1F;}
	.st45{fill:#CC3127;}
	.st46{fill:#9C1E1F;}
	.st47{fill:#78241C;}
	.st48{fill:#156333;}
	.st49{fill:#16291A;}
	.st50{fill:#C1C6C5;}
	.st51{fill:#9D948C;}
	.st52{fill:#4E231F;}
</style>
<g id="Layer_1">
	<g>
		<path class="st0" d="M134,56.1c0,6.4-1.7,11.3-5,14.9c-3.3,3.6-7.9,5.3-13.9,5.3c-3.7,0-7-0.8-9.8-2.5c-2.8-1.6-5-4-6.6-7.1
			c-1.5-3.1-2.3-6.6-2.3-10.7c0-6.3,1.6-11.2,4.9-14.8c3.3-3.5,7.9-5.3,13.9-5.3c5.7,0,10.3,1.8,13.6,5.4
			C132.3,45.1,134,49.9,134,56.1z M105.1,56.1c0,9,3.4,13.5,10.1,13.5c6.7,0,10-4.5,10-13.5c0-8.9-3.4-13.3-10.1-13.3
			c-3.5,0-6.1,1.1-7.7,3.4C105.9,48.5,105.1,51.8,105.1,56.1z"/>
		<path class="st0" d="M152.7,75.6l-15.1-38.9h8.9l8.1,22.6c1.4,3.8,2.2,6.9,2.5,9.2h0.3c0.2-1.7,1.1-4.8,2.5-9.2l8.1-22.6h9
			l-15.1,38.9H152.7z"/>
		<path class="st0" d="M200.2,76.3c-6.2,0-11-1.8-14.5-5.3s-5.2-8.4-5.2-14.6c0-6.4,1.6-11.3,4.8-15c3.2-3.6,7.7-5.4,13.3-5.4
			c5.2,0,9.4,1.6,12.4,4.7c3,3.1,4.6,7.4,4.6,12.9V58h-26.4c0.1,3.8,1.2,6.7,3.1,8.7c2,2,4.7,3,8.3,3c2.3,0,4.5-0.2,6.5-0.7
			s4.2-1.2,6.5-2.2v6.7c-2.1,1-4.1,1.6-6.2,2S202.9,76.3,200.2,76.3z M198.7,42.3c-2.7,0-4.8,0.8-6.4,2.5c-1.6,1.7-2.6,4.1-2.9,7.3
			h18c0-3.2-0.8-5.6-2.4-7.3C203.5,43.1,201.4,42.3,198.7,42.3z"/>
		<path class="st0" d="M245.3,36c1.7,0,3.1,0.1,4.2,0.4l-0.8,7.7c-1.2-0.3-2.4-0.4-3.7-0.4c-3.4,0-6.1,1.1-8.2,3.2s-3.1,5-3.1,8.4
			v20.3h-8.4V36.7h6.6l1.1,6.9h0.4c1.3-2.3,3-4.2,5.1-5.5C240.6,36.7,242.9,36,245.3,36z"/>
		<path class="st0" d="M283.5,64.5c0,3.8-1.4,6.7-4.2,8.7s-6.9,3-12.1,3c-5.3,0-9.5-0.8-12.7-2.4v-7.1c4.7,2.1,9,3.2,13,3.2
			c5.2,0,7.8-1.5,7.8-4.6c0-1-0.3-1.8-0.9-2.5s-1.5-1.3-2.8-2c-1.3-0.7-3.1-1.5-5.5-2.4c-4.6-1.7-7.7-3.5-9.3-5.2
			c-1.6-1.7-2.4-4-2.4-6.8c0-3.3,1.4-5.9,4.1-7.8c2.7-1.8,6.5-2.8,11.2-2.8c4.7,0,9.1,0.9,13.2,2.8l-2.7,6.2
			c-4.3-1.7-7.9-2.6-10.8-2.6c-4.4,0-6.7,1.2-6.7,3.7c0,1.2,0.6,2.2,1.7,3.1s3.7,2,7.6,3.5c3.3,1.2,5.7,2.4,7.1,3.4s2.6,2.2,3.3,3.6
			S283.5,62.6,283.5,64.5z"/>
		<path class="st0" d="M327.5,75.6H319V51.7c0-3-0.6-5.2-1.8-6.7c-1.2-1.5-3.2-2.2-5.9-2.2c-3.6,0-6.2,1-7.8,3.1
			c-1.6,2.1-2.5,5.5-2.5,10.4v19.4h-8.4V36.7h6.6l1.2,5.1h0.4c1.2-1.9,2.9-3.3,5.1-4.3c2.2-1,4.6-1.5,7.3-1.5
			c9.5,0,14.3,4.7,14.3,14.2V75.6z"/>
		<path class="st0" d="M356.5,76.3c-6.2,0-11-1.8-14.5-5.3s-5.2-8.4-5.2-14.6c0-6.4,1.6-11.3,4.8-15c3.2-3.6,7.7-5.4,13.3-5.4
			c5.2,0,9.4,1.6,12.4,4.7c3,3.1,4.6,7.4,4.6,12.9V58h-26.4c0.1,3.8,1.2,6.7,3.1,8.7s4.7,3,8.3,3c2.3,0,4.5-0.2,6.5-0.7
			s4.2-1.2,6.5-2.2v6.7c-2.1,1-4.1,1.6-6.2,2S359.2,76.3,356.5,76.3z M355,42.3c-2.7,0-4.8,0.8-6.4,2.5c-1.6,1.7-2.6,4.1-2.9,7.3h18
			c0-3.2-0.8-5.6-2.4-7.3C359.7,43.1,357.6,42.3,355,42.3z"/>
		<path class="st0" d="M398.8,76.3c-6.2,0-11-1.8-14.5-5.3s-5.2-8.4-5.2-14.6c0-6.4,1.6-11.3,4.8-15c3.2-3.6,7.7-5.4,13.3-5.4
			c5.2,0,9.4,1.6,12.4,4.7c3,3.1,4.6,7.4,4.6,12.9V58h-26.4c0.1,3.8,1.2,6.7,3.1,8.7s4.7,3,8.3,3c2.3,0,4.5-0.2,6.5-0.7
			s4.2-1.2,6.5-2.2v6.7c-2.1,1-4.1,1.6-6.2,2S401.5,76.3,398.8,76.3z M397.3,42.3c-2.7,0-4.8,0.8-6.4,2.5c-1.6,1.7-2.6,4.1-2.9,7.3
			h18c0-3.2-0.8-5.6-2.4-7.3C402,43.1,399.9,42.3,397.3,42.3z"/>
		<path class="st0" d="M437.1,76.3c-4.9,0-8.8-1.8-11.6-5.3c-2.8-3.5-4.2-8.4-4.2-14.8c0-6.4,1.4-11.3,4.2-14.9s6.7-5.3,11.7-5.3
			c5.2,0,9.2,1.9,11.9,5.7h0.4c-0.4-2.8-0.6-5-0.6-6.6V20.9h8.5v54.7h-6.6l-1.5-5.1H449C446.3,74.4,442.4,76.3,437.1,76.3z
			 M439.4,69.6c3.5,0,6-1,7.6-2.9c1.6-1.9,2.4-5,2.4-9.3v-1.2c0-4.9-0.8-8.4-2.4-10.4c-1.6-2.1-4.2-3.1-7.6-3.1
			c-3,0-5.2,1.2-6.8,3.5s-2.4,5.7-2.4,10.1c0,4.3,0.8,7.6,2.3,9.9C434,68.5,436.3,69.6,439.4,69.6z"/>
		<path class="st0" d="M489.6,36c1.7,0,3.1,0.1,4.2,0.4l-0.8,7.7c-1.2-0.3-2.4-0.4-3.7-0.4c-3.4,0-6.1,1.1-8.2,3.2s-3.1,5-3.1,8.4
			v20.3h-8.4V36.7h6.6l1.1,6.9h0.4c1.3-2.3,3-4.2,5.1-5.5C484.9,36.7,487.2,36,489.6,36z"/>
		<path class="st0" d="M521.3,36c1.7,0,3.1,0.1,4.2,0.4l-0.8,7.7c-1.2-0.3-2.4-0.4-3.7-0.4c-3.4,0-6.1,1.1-8.2,3.2
			c-2.1,2.2-3.1,5-3.1,8.4v20.3h-8.4V36.7h6.6l1.1,6.9h0.4c1.3-2.3,3-4.2,5.1-5.5C516.6,36.7,518.8,36,521.3,36z"/>
	</g>
</g>
<g id="Layer_2">
	
		<linearGradient id="SVGID_1_" gradientUnits="userSpaceOnUse" x1="22.681" y1="57.3227" x2="70.3225" y2="9.6812" gradientTransform="matrix(1 0 0 -1 0 93.3047)">
		<stop  offset="0" style="stop-color:#C395FC"/>
		<stop  offset="1" style="stop-color:#4F65F5"/>
	</linearGradient>
	<path class="st1" d="M39.1,85.3C57.3,85.3,72,70.6,72,52.4S57.3,19.5,39.1,19.5S6.2,34.3,6.2,52.4S21,85.3,39.1,85.3z M61.1,55.2
		c0,10.6-8.6,19.2-19.2,19.2s-19.2-8.6-19.2-19.2c0-2,0.3-3.9,0.8-5.7c1.5,3.3,4.9,5.7,8.8,5.7c5.3,0,9.6-4.3,9.6-9.6
		c0-3.9-2.3-7.2-5.7-8.8c1.8-0.5,3.7-0.8,5.7-0.8C52.5,36,61.1,44.6,61.1,55.2z"/>
	<path class="st2" d="M61.1,55.2c0,10.6-8.6,19.2-19.2,19.2c-10.4,0-18.8-8.2-19.2-18.5c0,0.2,0,0.5,0,0.7
		c0,11.4,9.2,20.6,20.6,20.6s20.6-9.2,20.6-20.6S54.6,36,43.2,36c-0.2,0-0.5,0-0.7,0C52.8,36.3,61.1,44.8,61.1,55.2z"/>
	
		<linearGradient id="SVGID_00000165207055621137479930000015002237691427985596_" gradientUnits="userSpaceOnUse" x1="25.4229" y1="68.2905" x2="25.4229" y2="40.871" gradientTransform="matrix(1 0 0 -1 0 93.3047)">
		<stop  offset="0" style="stop-color:#FFFFFF;stop-opacity:0.4"/>
		<stop  offset="1" style="stop-color:#FFFFFF;stop-opacity:0"/>
	</linearGradient>
	<path style="fill-rule:evenodd;clip-rule:evenodd;fill:url(#SVGID_00000165207055621137479930000015002237691427985596_);" d="
		M39.1,27.8c-13.6,0-24.7,11-24.7,24.7c0,1.5-1.2,2.7-2.7,2.7c-1.5,0-2.7-1.2-2.7-2.7c0-16.7,13.5-30.2,30.2-30.2
		c1.5,0,2.7,1.2,2.7,2.7C41.9,26.5,40.6,27.8,39.1,27.8z"/>
	<g>
		<path class="st4" d="M54.7,92.2c-1.7,0.1-2.9-1.1-4.2-1.8c-3.5-2-5.7-5.3-8.1-8.4c-0.4-0.5-1.1-1.2-0.1-1.9
			c1.4-0.5,2.9,0.1,4.3-0.3c1.3-0.5,2.6-0.9,4.1-0.7c0.2,0.6-0.3,0.7-0.7,0.9c-1.8,0.7-3.7,0.9-5.6,0.9c-1,0-1.3,0.3-0.6,1.1
			c1.8,2.3,3.4,4.8,5.9,6.5c1.1,1,2.5,1.5,3.7,2.4c0.4,0.4,0.9,0.5,1.3,0.9C54.8,92,54.8,92.1,54.7,92.2z"/>
		<path class="st5" d="M54.7,92.2c0-0.1,0-0.1,0-0.2c-0.2-0.5-0.6-1-1-1.3c-0.6-0.7-0.7-1.6-1.1-2.5c-0.2-0.8-0.4-1.6,0.9-1.7
			c1.1,0.1,1.9,0.9,3.1,1.1c-0.7-1.4-1.8-2.3-2.8-3.2c-1.4-1.4-2.2-3.4-3.9-4.6c0.2-0.2,0.5-0.4,0.7-0.7c1.9,1.1,2.5,3.3,4.1,4.7
			c0.9,0.8,1.6,1.8,2.5,2.6c0.6,0.5,1,1.1,0.5,1.9c-0.5,0.7-1.2,0.7-2,0.3c-0.8-0.4-1.5-0.9-2.5-1.1c0.4,1.2,0.9,2.1,1.7,2.9
			C55.8,91.2,55.7,91.8,54.7,92.2z"/>
		<path class="st6" d="M46.6,79.8c-1.4,0.7-2.9,0.1-4.3,0.3C43.7,79.4,45.2,80.3,46.6,79.8z"/>
		<path class="st7" d="M50,79.8c0.7,0,1.1,0.3,1.5,0.9c0.8,1.2,1.7,2.3,2.6,3.5c0.2,0.9,0.3,1.8-0.4,2.7c-1.4-0.1-0.8,0.8-0.8,1.4
			c-1,0.7-2.1,0.8-3.3,0.7c-2.9-1.8-4.6-4.7-6.6-7.2c-0.5-0.6-0.4-1.3,0.7-1.1C45.9,80.8,47.9,80.3,50,79.8z"/>
		<path class="st8" d="M49.6,88.9c1.1-0.4,2.1-0.7,3.3-0.7c0.4,0.8,0.7,1.6,1.1,2.4c0.2,0.2,0.2,0.4,0.1,0.6
			c-0.2,0.3-0.5,0.3-0.7,0.1C52.1,90.5,50.8,89.9,49.6,88.9z"/>
		<path class="st9" d="M53.4,91.3c0.4,0,0.7-0.2,0.6-0.6c0.6,0.3,1.3,0.5,0.7,1.4C54.2,91.9,53.7,91.7,53.4,91.3z"/>
		<path class="st10" d="M53.7,86.8c0-0.9-0.2-1.8,0.4-2.7c1,1,1.9,2,2.9,3c0.2,0.2,0.4,0.6,0.3,0.9c-0.2,0.4-0.7,0.3-1,0.2
			C55.4,87.8,54.5,87.3,53.7,86.8z"/>
	</g>
	<g>
		<path class="st11" d="M9.4,52.4c-2.5,0.2-3.4-0.3-3.7-2.7c-0.6-4.4-3-8.2-4.3-12.3c-0.4-1.2-0.7-2.4-1.1-3.7
			C-0.9,29.3,1,26,3.7,22.9c2.7-3.3,5.1-6.9,8.1-10c2.6-2.6,5.5-4.9,8.6-6.8c5.4-3.2,11.3-4.7,17.4-5.6c3.3-0.5,6.7-0.7,10.1-0.1
			c0.8,0.2,1.8,0.6,2.4,1.2c2.8,2.7,5.7,5.4,7.3,9.1c0.5,1.2,1.2,2.2,2,3.2c0.5,0.7,1.4,1.5,1.4,2.3c-0.1,2.7,1.7,2,3,1.8
			c5.9-0.5,11.8-0.9,17.5,1.2c3.4,1.3,5.3,3.8,5,7.1c0,0.2-0.2,0.4-0.3,0.6c-0.6-0.5-0.4-1.3-0.6-2c-0.5-1.8-1.4-3.4-3.4-4
			c-4.4-1.8-8.8-2.6-13.5-1.4c-2.4,0.1-4.8,0.4-7.2,0.5c-1.2,0.1-2-0.4-2-1.8c0-0.7-0.2-1.3-0.6-1.9c-1.8-2.6-2.9-5.6-4.8-8.1
			c-1.4-2.6-3.5-4.5-6.1-5.8c-2.4-0.7-4.7-0.7-7.2-0.3c-4.5,0.7-8.9,1.4-13.3,2.7C23.7,6,20.4,7.7,17.3,10c-3.3,1.8-5.5,4.9-7.8,7.7
			c-1.9,2.4-3.7,5-5.5,7.4c-2.4,3.2-2.3,6.4-1.3,10c0.8,2.8,2.2,5.4,2.9,8.2c0.2,1.5,1,2.7,1.3,4.1c0.3,0.9,0,2,0.5,2.8
			c0.2,0.5,0.6,0.6,1.1,0.7C9.1,51.2,9.5,51.6,9.4,52.4z"/>
		<path class="st12" d="M37.7,41.1c-0.6,0-1.2,0-1.7,0.4c-3.5,0.8-7,0.4-10.5-0.3c-0.7-0.8-1.7-0.9-2.7-1.1
			c-0.6-0.1-1.1-0.2-1.5-0.8c-0.1-0.2,0-0.4,0.1-0.5c0.2-0.1,0.3-0.2,0.5-0.2c2.6,0.3,5.1,1,7.6,1.2c5.2,0.4,10.1-0.7,14.6-3.5
			c4-2.8,7.7-6,12-8.4c0.6-0.3,1.1-0.7,1.8-0.7c0.8,0.1,1.5-0.8,2.3-0.3c0.2,0.3,0.2,0.7,0.1,1c-0.7,0.6-1.6,0.8-2.3,1.3
			c-3.5,2-6.8,4.3-9.9,7c-2.4,1.6-4.9,3.1-7.6,4C39.7,40.6,38.7,40.9,37.7,41.1z"/>
		<path class="st13" d="M21.4,39c0,0.1,0,0.2,0,0.3c-0.3,1.2-1.2,0.6-1.8,0.7c-1.6,0.2-2.2,1.6-3.1,2.5c-2.8,2.9-5.3,6.1-7,9.8
			c-0.3-1.4-2.2-0.5-2.5-1.7c0.8-0.2,1.4-0.6,1.9-1.4c1.8-2.6,3.6-5.1,5.8-7.5c0.4-0.4,0.8-0.9,1-1.5c0.3-0.6,0.7-1,1.3-1.3
			c1.1-0.4,1.8-1.4,2.6-2.2c0.4-0.3,0.8-0.8,1.4-0.5c0.5,0.3,0.5,0.8,0.3,1.3C20.9,38.2,21.2,38.6,21.4,39z"/>
		<path class="st14" d="M58.1,29.1c0.6-0.6,1.4-0.9,2.2-1.1c0.8-0.4,1.4,0.1,1.6,0.7c1.3,2.3,3.2,2.1,5.3,1.6c1.4-0.6,2.9-0.3,4.2-1
			c0.5-0.2,1.1-0.2,1.6-0.4c0.4-0.1,0.7-0.1,1.1-0.2c0.7,0,1.5-0.1,2.2-0.3c0.8,0.1,2.1-0.5,1.8,1.2c0,0.1,0.4-0.1,0.6,0
			c0.3,0.1,0.6,0.2,0.6,0.5c-4.8-0.1-9.4,1.2-14.1,2c-1.7,0.3-2.6-0.4-3.3-1.7c-0.7-1.5-1.7-2.4-3.4-1.2
			C58.4,29.3,58.2,29.3,58.1,29.1z"/>
		<path class="st15" d="M79.2,30.1c-1.3,0.1-1.6-1.8-3-1.4c0.1-0.9,0.8-0.7,1.4-0.8c1.3-0.2,2.6-0.5,3.8-0.9
			c2.5-0.9,2.7-1.9,0.9-3.8c-0.3-0.4-0.8-0.8-0.6-1.4c1.3-0.5,1.8,0.6,2.3,1.3c0.4,0.5,0.6,0,0.9,0.1c1.8,2.8,1.2,4.4-1.8,5.4
			c-0.4,0.1-0.8,0.1-1.2,0.3c-0.3,0-0.6,0-0.9,0c-0.1,0-0.2-0.1-0.2-0.1c0.1,0.4,1-0.3,0.9,0.6C80.9,29.6,80.1,29.9,79.2,30.1z"/>
		<path class="st16" d="M19.6,40c0.5-0.4,1.4,0,1.8-0.7c0.4,0.3,0.9,0.4,1.4,0.4c0.5,1.1,1.9,0.3,2.6,1.1c2.7,0.7,5.4,1.4,8.3,0.7
			c0.7-0.2,1.6,0,2.3,0c-2.9,1.1-5.8,0.7-8.7,0.3c-2-0.3-4-0.7-5.9-1C20.6,40.7,20.1,40.4,19.6,40z"/>
		<path class="st17" d="M81.8,28.8c0.3-0.5,0.9-0.5,1.4-0.7c2.8-1,3.2-2.3,1.5-4.8c-1-0.6-2.1-1.2-2.2-2.6c3,1.1,3.7,3.5,3.7,6.3
			c0,0.1,0,0.2-0.1,0.3C84.8,28.3,83.5,29.2,81.8,28.8z"/>
		<path class="st18" d="M58.1,29.1c0.1,0,0.3,0,0.4,0c-3.5,2.2-6.9,4.6-10.2,7.2c-0.1-0.1-0.2-0.1-0.1-0.2c0-0.1,0.1-0.1,0.1-0.1
			C51.2,33.2,54.5,31,58.1,29.1z"/>
		<path class="st19" d="M48.3,36c0,0.1,0,0.2,0,0.3c-2.3,1.7-4.8,3.3-7.6,4.1c-0.1-0.1-0.2-0.1-0.1-0.2c0-0.1,0.1-0.1,0.1-0.1
			C43.3,39,45.8,37.4,48.3,36z"/>
		<path class="st20" d="M81.8,28.8c1.6,0.1,2.9-0.9,4.3-1.5c-1,1.7-2.8,1.5-4.3,2.1c-0.4-0.2-0.7-0.3-1.3-0.6
			C81,28.8,81.4,28.8,81.8,28.8z"/>
		<path class="st21" d="M40.7,40c0,0.1,0,0.2,0,0.3c-0.9,0.4-1.9,1-3,0.8C38.6,40.6,39.6,40.3,40.7,40z"/>
		<path class="st22" d="M17,39.3c-0.5,0.2-0.8,0.6-1.1,1.1c-2.6,2.9-5.1,6-7.2,9.2C8.4,50,8.1,50.2,7.6,50c-0.5-0.2-0.7-0.6-0.7-1.2
			c0-1-0.2-1.9-0.6-2.8c-0.3-1-0.7-1.9-1.1-2.8c-0.9-2.5-2-4.9-2.8-7.5c-1.2-4-1.3-7.6,1.4-11.1c3.9-5,7.3-10.4,12.4-14.4
			c0.3-0.2,0.6-0.4,0.9-0.5c0.1,0.1,0.2,0.3,0.1,0.4c-0.2,0.5-0.7,0.9-1.1,1.3c-0.9,0.9-1.8,1.7-2.6,2.7c-4,4-7.2,8.6-10,13.6
			c-1,1.7-0.7,3.7-0.4,5.5c0.8,4.5,3.1,8.5,4.7,12.8c0.4,1,0.9,0.8,1.5,0.2c0.7-0.7,1.3-1.5,1.9-2.2c2.4-3,5-5.8,8-8.2
			c0.3-0.1,0.5-0.1,0.8,0C19.6,37.6,18.1,38.3,17,39.3z"/>
		<path class="st23" d="M17,10.2c0-0.1,0-0.3,0-0.4c6.1-5,13.5-6.5,20.9-7.6c2-0.3,4-0.8,6.1-0.7c1.5,0,2.9,0.2,4.2,0.7
			c0.6,0.4,1.4,0.8,1.2,1.6c-0.3,0.8-1.2,0.7-1.9,0.7c-2.9,0-5.7,0.2-8.5,0.9c-0.8,0.1-1.5,0.6-2.3,0.2c-0.3-1,0.7-1.1,1.2-1.4
			c0.7-0.4,1.6-0.4,2.5-1.1c-4.3,0.2-8.3,1.3-12.2,2.4c-3.1,0.9-6.1,1.9-8.8,3.8C18.8,9.8,18.1,10.4,17,10.2z"/>
		<path class="st24" d="M38.8,5c3.3-1.4,6.9-0.9,10.4-1.2c0-0.9-0.8-1.1-0.9-1.7c2.4,1.5,4.7,3.1,5.8,5.8c-0.7,0.3-1-0.3-1.6-0.8
			c0.8,1.9,1.8,3.5,2.3,5.2c-0.1,1.3,0.8,2.8-1,3.7c-0.3-0.1-0.4-0.4-0.5-0.7c-0.1-0.9-0.2-1.9-0.4-2.8c-0.2-1.1-0.8-2.1-1.3-3.1
			c-0.6-1.3-1.2-2.5-2.4-3.2c-1.2-1.1-2.6-0.8-4-0.7c-3.1,0.2-6.2,0.8-9.2,1.9c-1.2,0.4-2.3,0.8-3.5,1.1c-1.7-0.7-0.4-1.4,0.2-1.6
			c1.2-0.5,2.4-1.1,3.7-1.3C37.3,5.6,38.1,5.4,38.8,5z"/>
		<path class="st25" d="M54.4,12c-0.9-1.8-1.7-3.6-2.7-5.6c1.4,0,1.5,1.4,2.4,1.6c2.5,2.7,3.6,6.3,5.7,9.2c0,0,0.1,0.1,0.1,0.2
			c-0.4,2.8,1.6,2.4,3.2,2.2c1.9-0.3,3.7-0.2,5.6-0.3c3.3-0.8,6.5-0.1,9.7,0.7c0.5,0.1,1,0.3,1.3,0.9c0,0.2-0.2,0.4-0.4,0.5
			c-1.7,0.4-3.3-0.5-5-0.6c-3.6-0.4-7.1-0.1-10.7-0.2c-1.7-0.2-3.3-0.1-4.9,0.7c-0.2,0.1-0.4,0.1-0.6,0.1c-0.8-0.2-1.6,0-2.4,0.3
			c-0.6,0.2-1.3,0.4-1.9,0c-0.2-0.2-0.3-0.5-0.2-0.8c0.1-0.4,0.4-0.6,0.7-0.8c0.8-0.5,1.6-0.7,2.5-0.9c1.7-0.3,2-1.2,1.2-2.7
			c-0.4-0.6-1-1.1-1.3-1.8c-0.6-1-0.7-2.4-2-2.9C54.7,11.9,54.6,12,54.4,12z"/>
		<path class="st26" d="M79.6,21.1c-3.5-1.4-7.2-1.8-10.9-1.8c4.8-1.5,9.4-0.7,13.8,1.4c0.7,0.9,1.5,1.7,2.2,2.6
			c-0.1,0.8-0.4,0.4-0.8,0.2c-0.7-0.6-1.1-1.6-2.2-1.6C80.8,22.3,80.2,21.6,79.6,21.1z"/>
		<path class="st27" d="M6.5,45.9c0.6,0.8,0.7,1.7,0.7,2.6c0,0.5-0.1,1.2,0.6,1.3c0.6,0.1,0.7-0.5,1-0.9c2.2-2.9,4.2-6.1,7.1-8.5
			c-1,2.1-2.9,3.5-4.1,5.4c-0.9,1.5-2.4,2.7-3.1,4.4c-0.4,1-1.1,0.5-1.8,0.4c-0.7-1-0.3-2.2-0.4-3.3C6.3,46.9,6.2,46.4,6.5,45.9z"/>
		<path class="st13" d="M6.5,45.9c0,0.5,0,1,0,1.5c-0.6-1.3-1.4-2.6-1.4-4.1C6.2,43.8,6.2,44.9,6.5,45.9z"/>
		<path class="st28" d="M58.1,21c0.1,0,0.3,0,0.4,0c1.5-0.7,3.1-0.7,4.7-0.9c3.1,0,6.2,0,9.3,0c0.6,0,1.3-0.1,1.9,0.3
			c1,0.5,2.2,0.6,3.3,0.9c0.6,0.2,1.2,0.4,1.1,1.1c-0.1,0.7-0.7,0.9-1.4,0.9c-4.4-0.4-8.6,0.2-12.9,1.2c-1.9,0.5-3.6,1.2-5.3,2.2
			c-0.3,0.5-0.8,0.7-1.3,1C56.5,28,55.3,29,54,29.8c-3.1,2.2-6.2,4.4-9.4,6.6c-6,3.4-12.4,4.6-19.1,2.9c-1.1-0.3-2.7-0.3-3-1.6
			c-0.3-1.3,1.2-1.8,2.1-2.4c3.8-2.9,8.2-4.8,12.5-6.8c1.8-0.9,3.7-1.8,5.4-2.9c0.6-0.4,1.1-0.7,1.8-0.9c3.9-1.6,8.1-2.4,12.1-3.6
			C57,20.9,57.5,20.9,58.1,21z"/>
		<path class="st27" d="M44.3,25.1c-0.5,0.2-1,0.5-1.5,0.7c-5.3,2.8-10.9,5.1-16.1,8.1c-1.4,0.8-2.5,1.9-3.8,2.7
			c-0.8,0.5-0.9,1.4-1.1,2.2c-0.1,0-0.3,0-0.4,0c-0.7-0.2-1.3-0.4-0.7-1.3c0.2-0.3,0.6-0.8,0.1-1.1c-0.4-0.2-0.7,0.3-1,0.6
			c-0.9,0.7-1.4,2-2.7,2.1c1-1.1,2-2.2,3-3.3c0.3-1.3,1.5-1.7,2.4-2.4c5.2-3.7,11.1-6.2,16.8-8.9c1.1-0.5,2.1-1.2,3.4-1.3
			c2.8-0.8,5.6-1.9,8.4-2.6c0.9-0.2,1.8-0.8,2.7-0.1c0,0.2,0,0.5,0,0.7c-0.4,1.1-1.5,1.1-2.3,1.2C48.9,23.1,46.6,24,44.3,25.1z"/>
		<path class="st29" d="M58.1,27.7c0.3-0.3,0.5-0.7,0.8-1c5.5-3.1,11.4-3.8,17.6-3.7c1.3,0,2.6,0.2,3.9,0.7c0.6,0.3,1.5,0.6,1.2,1.5
			c-0.3,1-1.2,0.7-2,0.7c-4.4-0.3-8.8-0.5-13.1,0.3c-3.1,0.6-3.3,0.9-2.1,3.8c-1.1,0.6-1.6,0.4-2-1.3c-0.3-1.3-0.9-1.8-2.1-1.7
			C59.5,26.9,59,27.9,58.1,27.7z"/>
		<path class="st30" d="M21.8,38.9c-1-1.5,0.4-2.1,1.2-2.7c2.7-2.2,5.7-3.8,8.8-5.3c3.2-1.6,6.4-3.1,9.6-4.7c0.5-0.2,1-0.5,1.6-0.4
			c-1.3,1.3-3,2.1-4.6,2.7c-3.9,1.5-7.4,3.7-11.1,5.5c-1.4,0.7-2.7,1.9-4,2.8c-0.7,0.5-0.8,0.9,0.2,1.3c5.3,2.3,10.7,1.7,16.1,0.2
			c1.7-0.5,3.2-1.9,5.1-2.1c-2,2.1-4.7,2.5-7.3,3.2C32.1,41.1,27,40.1,21.8,38.9z"/>
		<path class="st31" d="M60.3,26.9c1.3-0.8,2.2-0.9,2.4,1c0.1,1,0.2,2.1,1.6,2.2c0.1,0,0.2,0,0.3,0c0.9,0,1.8-0.3,2.6,0.4
			c-2.6,1-3.9,0.6-5.5-1.6c-0.4-0.5-0.7-1-1.4-1C60.3,27.6,60.3,27.3,60.3,26.9z"/>
		<path class="st13" d="M25.4,40.8c-0.6,0-1.2-0.1-1.8,0c-1,0.1-0.9-0.5-0.8-1.1C23.6,40.2,24.9,39.5,25.4,40.8z"/>
		<path class="st32" d="M74.1,29.1c-0.4,0-0.7,0-1.1,0c-1.9,0.1-3.8,0.7-5.7,1c-0.5,0.1-1.1,0.2-1.6,0.2c-1.4,0-2-1-2.3-2.1
			c-0.3-1.3,0.8-1.7,1.7-1.9c4.6-1.1,9.3-1,14-0.6c0.7,0.1,1.6,0.1,1.6,1.1c0,1-0.9,1-1.6,1.2C77.5,28.3,75.7,28.2,74.1,29.1z"/>
		<path class="st33" d="M74.1,29.1c0.4-1,1.3-0.9,2.1-1c1.2-0.1,2.3-0.4,3.3-0.7c0.4-0.1,0.9-0.1,0.9-0.7c0-0.5-0.4-0.7-0.9-0.8
			c-0.7-0.1-1.4-0.3-2.1-0.3c-3.9-0.1-7.7-0.2-11.5,0.7c-1.1,0.3-2.5,0.4-2.2,2c0.3,1.5,1.5,1.8,3,1.5c1.6-0.4,3.3-0.6,5-0.9
			c0.5-0.1,1-0.2,1.3,0.3c-0.3,0.6-0.9,0.3-1.4,0.4c-2.4,0.4-4.8,1.3-7.3,0.7c0,0,0,0,0,0c-0.3-0.3-0.6-0.6-0.8-1
			c-1.1-1.7-0.7-2.7,1.2-3.2c4.9-1.3,9.8-1,14.7-0.7c0.1,0,0.2,0.1,0.3,0.1c0.5,0,1.2,0.4,1.4-0.3c0.3-0.8-0.8-0.6-1-1
			c0.5-0.8,1.8,0.1,2.1-1c0.1,0,0.1-0.1,0.2-0.1c0.8,0.7,2,1.3,1.6,2.5c-0.4,1.3-1.7,1.8-2.9,2.2c-1.6,0.5-3.3,0.8-5,1.1
			C75.6,29.2,74.9,29.2,74.1,29.1z"/>
		<path class="st29" d="M64.3,30.2c2.5,0.3,4.8-0.9,7.3-0.7c-1.3,1-3,0.5-4.4,1.1C66.2,30.4,65.2,31,64.3,30.2z"/>
		<path class="st33" d="M79.6,21.1c0.8-0.1,1.3,0.7,2.1,0.8c0.3,0.3,0.5,0.7,0.8,1c0,0-0.1,0.1-0.1,0.1c-1.6,0.3-2.6-0.5-3.2-1.9
			C79.3,21.1,79.5,21.1,79.6,21.1z"/>
		<path class="st34" d="M19.2,36.1c-2,2-3.9,4.1-5.9,6.1c-1.6,1.5-2.5,3.5-4.2,5C8.5,47.6,8,48,7.6,47c-1.2-4-3.4-7.7-4.5-11.7
			c-1.1-4-0.7-7.5,1.7-10.8c2.7-3.7,5-7.7,8.6-10.7c1.7-1.2,1.7-1.2,2.7,0.6c0.3,0.4,0.6,0.7,1.1,0.9c2.7,1.4,4,3.8,5,6.6
			c0.6,2.8,1.2,5.5,2.8,8c0.8,1.3,0.2,2.4-0.9,2.9C22.3,33.6,20.8,34.9,19.2,36.1z"/>
		<path class="st34" d="M17,10.2c2.9-1.4,5.5-3.4,8.6-4.4c4.8-1.4,9.6-2.8,14.6-3.3c0.4,0,1.1-0.3,1.2,0.3c0.1,0.6-0.6,0.6-1,0.8
			c-1.2,0.7-2.9,0.6-3.9,1.7c-0.4,0.7-1.2,0.5-1.7,0.8c-2.2-0.1-3.9,1.2-5.5,2.3c-2.2,1.6-2.4,3.6-1.1,6.1c1.1,2,2.3,4,3.5,5.9
			c1,1.6,2.4,2.9,4.5,3c0.5,0,1,0.1,1.2,0.6c0.2,0.6-0.2,1-0.6,1.4c-0.2,0.2-0.4,0.3-0.6,0.4c-2.3,1.1-4.7,2.2-7,3.3
			c-1.6,0.8-2.1,0.3-2.3-1.5c0-0.1,0-0.3,0-0.4c-1.7-2.7-1.6-6.2-3.9-8.7c-0.9-1-1.3-2.3-2.4-3.2c-1.2-1-2.3-2-4-2.2
			c-1.4-0.2-1.6-1.1-0.8-2.2C16.2,10.8,16.6,10.4,17,10.2z"/>
		<path class="st35" d="M21,15.3c1.7,2.6,4.3,4.6,4.6,7.9c0.1,1,0.8,1.6,1.1,2.5c0.3,0.6,0.7,1.2,0.8,1.8c0.3,1.9,0.7,2.3,2.2,1.2
			c2-1.5,4.6-1.7,6.6-3.2c0.4-0.3,1-0.5,0.9-1C37.1,23.8,36.4,24,36,24c-2.3,0-3.6-1.6-4.7-3.3c-1.3-1.9-2.1-4.1-3.4-5.9
			c-1.8-2.6-0.9-5.3,1.4-6.8c1.7-1.1,3.4-2.6,5.7-2.3c-0.1,0.9-1,0.8-1.5,1.1c-1.6,0.7-3,1.7-4,3.1c-1.1,1.5-0.9,3.2-0.1,4.8
			c1.1,2,2.4,3.9,3.7,5.8c1.1,1.5,2.3,2.1,3.9,1.4c4.9-2.3,10.3-3.1,15.3-5c0.5-0.2,0.9-0.5,1.4-0.7c0.8-0.1,1-0.8,1.5-1.3
			c0.6-0.5,1.1-1,1.9-0.4c0.6,0.8,1.4,1.4,1.8,2.4c0.5,1.4,0,2.5-1.6,2.6c-1,0.1-1.9,0.3-2.7,0.8c-4.2,0.7-8.1,2-12,3.6
			c-2.3,0.6-4.4,1.9-6.6,2.9c-5.1,2.2-10,4.8-14.5,8.1c-0.5,0.4-1,0.7-1.4,1.1c-0.2,0-0.5,0-0.7,0c1-1.5,2.3-2.6,4-3.3
			c1.7-0.7,1.9-1.7,1-3.3c-1.3-2.4-2.1-5-2.4-7.7c1.7,0.9,1.7,2.9,2.6,4.3c0.4,0.7,0.2,2.2,1.1,1.9c1-0.4,0.1-1.6-0.2-2.4
			c-1.1-3.3-2.8-6.4-4.5-9.4C20.7,15.9,20.8,15.5,21,15.3z"/>
		<path class="st23" d="M21,15.3c0,0.4,0,0.7,0,1.1c-1.1-0.1-1.5-1.3-2.4-1.7c-0.5-0.2-1-0.9-1.6-0.5c-0.6,0.4,0.3,1,0,1.5
			c-0.6,0-1.2-0.4-1.3-0.8c-0.2-1.9-1.2-1.6-2.4-1c0.7-1,1.6-1.8,2.5-2.6c-0.3,1.1-0.2,1.8,1.3,1.8C18.9,13.1,19.9,14.4,21,15.3z"/>
		<path class="st36" d="M29,14.9c-1.6-2.8-0.6-5.7,2.4-7.4c1.2-0.6,2.5-0.8,3.5-1.8c0.6,0.1,1.2,0,1.8-0.4c0.7-0.1,1.4-0.3,2.2-0.4
			c-1.6,1.2-3.6,1.4-5.4,2.2c-0.5,0.2-1.4,0.2-0.8,1.2c0.2,0.6-0.4,0.8-0.8,1c-1.2,0.8-2,1.8-2.3,3.2C28.8,13.2,29.8,14.3,29,14.9z"
			/>
		<path class="st37" d="M52,9.4c0.6,0.9,1,1.9,1.4,3c-0.6,0.9,0,2.3-1,3.1c-1.9,0.6-3.6,1.6-5.7,1.1c-0.5-0.2-0.8-0.6-1-1
			c0.3-1,1.2-0.9,1.9-1c0.7-0.2,1.5-0.2,2.3-0.5c1-0.4,1.3-1,0.8-2c-0.5-0.9-0.9-1.8-1.4-2.7c-0.6-1-1.4-1.5-2.7-1.4
			c-1.5,0.2-3.1,0.2-4.7,0.2c-0.6-0.4-1.2-0.4-1.9-0.3c-0.6,0.1-1.3,0.3-1.6-0.5c1.5-1.3,3.4-1,5.1-1.4c1.6,0,3.2,0,4.8,0.1
			c0.2,0,0.4,0.1,0.5,0.1C50.6,6.6,50.8,8.5,52,9.4z"/>
		<path class="st38" d="M43.6,6.5c-1.8,0.3-3.6,0.4-5.2,1.1c-0.5,0.7-1.2,0.9-2,0.6c0.4-0.7-0.3-0.6-0.6-0.9
			c3.7-1.5,7.6-2.1,11.6-2.1c1,0,1.8,0.3,2.3,1.1c0,0.6-0.3,0.5-0.7,0.4l0,0C47.2,6.2,45.4,6.2,43.6,6.5z"/>
		<path class="st39" d="M35.8,7.2c0.3,0.2,0.7-0.1,0.9,0.3c0,0.1-0.2,0.3-0.4,0.5c-0.5,1.3-1.8,1.3-2.8,1.8c-2.2,1-2.7,1.8-2.4,4.2
			c0,0.4-0.2,0.7-0.6,0.8c-1.1-0.3-1.3-1-1.1-2c-0.4-2.5,1.7-3.2,3.2-4.4C33.6,7.7,34.8,7.6,35.8,7.2z"/>
		<path class="st40" d="M53.8,16.4c-0.3,0.4-0.6,0.7-1.2,0.7c-1.1,0.2-2.1,0.7-3.2,0.1c-0.2-0.9,0.6-1,1.1-1
			c1.1-0.1,1.8-0.7,2.7-1.1c0.2,0,0.4,0.1,0.5,0.2c0,0.2,0,0.5,0,0.7c0.1,0.1,0.2,0.2,0.1,0.3C53.9,16.3,53.8,16.4,53.8,16.4z"/>
		<path class="st41" d="M49,6.5c0.2-0.1,0.5-0.2,0.7-0.4c1.3,0.7,1.8,2,2.3,3.2c-0.8,0.3-1-0.5-1.3-0.9C50.3,7.7,49.7,7.1,49,6.5z"
			/>
		<path class="st25" d="M53.8,16.4c0-0.1,0-0.3,0-0.4c1.4-1.1,0.5-2.6,0.7-3.9c0,0,0.1-0.1,0.1-0.1c1.4,0.8,1.3,2,0.7,3.3
			C54.9,15.8,54.6,16.3,53.8,16.4z"/>
		<path class="st42" d="M53.8,15.3c-0.1,0-0.2,0-0.4,0c-0.4-0.8-0.8,0.7-1.2-0.1c0.4-0.6,0.6-1.3,0.5-2c0-0.4,0-0.9,0.7-0.8
			C53.5,13.4,53.6,14.3,53.8,15.3z"/>
		<path class="st43" d="M79.2,21.1c1,0.8,2,1.6,3.2,1.9c0.1,0.6,0.9,1.7-0.7,1.1c-0.4-0.1-0.9,0-1.4,0c-5.1-1.4-10.1-0.8-15.2,0.3
			c-2.2,0.5-4.1,1.8-6.3,2.2c1-1,2.2-1.8,3.5-2.1c5-1.3,10-2.5,15.3-1.7c0.5,0.1,0.9,0.1,1-0.5c0-0.4-0.3-0.7-0.7-0.9
			c-1.1-0.3-2.4-0.3-3.4-1.1C76.1,20.6,77.6,20.8,79.2,21.1z"/>
		<path class="st44" d="M44.3,25.1c1.7-1.6,4-2,6.2-2.5c1.2-0.3,2.3-0.6,3.3-1.2c1.5,0.3,2.8-1.3,4.3-0.5c-4.2,1.1-8.4,2.2-12.4,3.8
			C45.2,25,44.8,25.1,44.3,25.1z"/>
		<path class="st44" d="M42.5,24c1-1.2,2.6-1.3,3.9-1.7c2.7-0.8,5.3-2.1,8.2-1.9c-0.2,0.3-0.4,0.4-0.7,0.4c-3.3,0.6-6.4,1.7-9.6,2.8
			C43.6,23.8,43.1,24.1,42.5,24z"/>
		<path class="st45" d="M55.2,15.3c0-1.1,0.1-2.3-0.7-3.3c0-0.5-0.1-1.1,0.5-1.2c0.5-0.1,0.5,0.6,0.7,0.9c0.5,0.9,1.2,1.7,1.4,2.9
			C56.2,14.4,55.8,15,55.2,15.3z"/>
		<path class="st44" d="M63.3,20c-1.6,0.3-3.2,0.6-4.7,0.9C59.9,19.8,61.6,20,63.3,20z"/>
		<path class="st46" d="M17.1,15.6c-0.1-0.2-0.3-0.4-0.4-0.6c-0.3-0.4-0.8-0.6-0.4-1.2c0.4-0.6,1-0.5,1.6-0.2
			c1.3,0.6,2.4,1.5,3.2,2.7c2.4,3.1,3.7,6.7,5.1,10.3c0.3,0.9,0.6,2-0.6,2.2c-1,0.2-1.1-0.8-1.3-1.6c-0.6-2-1.4-3.8-2.5-5.6
			C20.8,19.3,19.5,17,17.1,15.6z"/>
		<path class="st47" d="M49.4,17.1c1.1,0,2.2,0,3.3,0c-2.2,1.3-4.7,1.8-7.1,2.4c-2.6,0.7-5.2,1.6-7.7,2.7c-2.5,1-3.7,0.7-5.3-1.6
			c-1.3-1.8-2.7-3.6-3.6-5.6c0.1-0.6,0-1.2-0.2-1.8c-0.3-0.7,0.2-0.6,0.7-0.5c0.5,0.6,0.2,1.5,1,1.9c1.5,1.5,2.3,3.5,3.6,5.1
			c0.6,0.8,1.5,1.2,2.4,1.5c2.8-0.7,5.7-1.6,8.3-2.9c0.9-0.3,1.9-0.3,2.7-0.8C48,17.2,48.6,16.8,49.4,17.1z"/>
		<path class="st48" d="M41.8,7.9c1.8-0.6,3.7-0.1,5.6-0.6c0.6-0.2,1.2,0.3,1.6,0.7c1.2,1.4,1.9,3.1,2.6,4.7c0.4,1-0.5,1.3-1.2,1.7
			c-1.4,0.6-3.1,0.3-4.5,1.2c-3.1,1.4-6.4,2.5-9.7,3.3c-0.8,0.2-1.6-0.3-2.1-0.9c-1.4-1.5-2-3.4-2.4-5.4c-0.1-0.5,0.1-1,0.5-1.3
			C35,9,38.1,7.7,41.8,7.9z"/>
		<path class="st49" d="M41.8,7.9c-2.9,0.5-5.8,1.3-8.4,2.8c-1.2,0.7-1.7,1.5-1.1,3c0.6,1.4,0.9,2.9,2,4c1.6,1.7,3.3,0.4,4.7-0.1
			c2.2-0.8,4.4-1.5,6.7-2c0.5,0,0.7,0.3,0.7,0.7c-0.3,0.8-1.1,0.9-1.7,1.1c-2.5,0.8-5.1,1.5-7.5,2.6c-1.1,0.5-2.3,0.7-3.3-0.4
			c-1.3-1.8-2.5-3.7-3.1-5.8c-0.6-2.3-0.2-3.2,1.8-4.2c1.2-0.6,2.6-0.9,3.7-1.8c0.7-0.1,1.4-0.2,2.1-0.4c0.9,0.2,1.7-0.1,2.5-0.2
			C41.2,7.2,42.1,6.8,41.8,7.9z"/>
		<path class="st50" d="M34.1,19.3c0.5,0.9,1.4,1,2.2,0.6c3.3-1.5,6.8-2.3,10.2-3.6c2,0.1,3.8-0.8,5.7-1.2c0.4,0.9,0.9-2,1.2,0.1
			c-1,1.4-2.7,1.1-4,1.8c-0.6,0.3-1.3,0.2-1.8,0.7c-1,0.5-2.2,0.3-3.2,0.9c-2.3,0.8-4.6,1.5-6.7,2.5c-0.4,0.2-0.9,0.4-1.4,0.2
			c-1.1,0.1-2-0.3-2.5-1.3C33.6,19.6,33.5,19.3,34.1,19.3z"/>
		<path class="st41" d="M43.6,6.5C45.4,6,47.2,5.8,49,6.5C47.2,6.5,45.4,6.5,43.6,6.5z"/>
		<path class="st51" d="M34.1,19.3c-0.1,0.3-0.3,0.5-0.4,0.8c-1.2-1.8-2.6-3.4-3.3-5.4c0.3-0.1,0.4-0.4,0.4-0.7
			C32.1,15.6,32.7,17.6,34.1,19.3z"/>
		<path class="st52" d="M36.2,21.3c2.7-1,5.2-2.5,8.1-2.8c0.2-0.1,0.3-0.1,0.4,0.1c-0.7,1.1-1.9,1-2.9,1.4c-1.5,0.6-3,1.1-4.5,1.7
			C36.8,21.9,36.3,22.2,36.2,21.3z"/>
		<path class="st40" d="M44.7,18.6c-0.1,0-0.2-0.1-0.4-0.1c1-0.5,2.1-0.7,3.3-0.7C46.7,18.5,45.7,18.5,44.7,18.6z"/>
	</g>
</g>
</svg>
