<?xml version="1.0" encoding="utf-8"?>
<!-- Generator: Adobe Illustrator 27.8.1, SVG Export Plug-In . SVG Version: 6.00 Build 0)  -->
<svg version="1.1" xmlns="http://www.w3.org/2000/svg" xmlns:xlink="http://www.w3.org/1999/xlink" x="0px" y="0px" width="332px" height="165px"
	 viewBox="0 0 332 165" style="enable-background:new 0 0 332 165;" xml:space="preserve">
<style type="text/css">
	.st0{fill:#FFFFFF;}
	.st1{fill:#131928;}
	.st2{fill-rule:evenodd;clip-rule:evenodd;fill:url(#SVGID_1_);}
	.st3{opacity:0.2;fill-rule:evenodd;clip-rule:evenodd;fill:#131928;enable-background:new    ;}
	.st4{fill-rule:evenodd;clip-rule:evenodd;fill:url(#SVGID_00000047781905599297169300000001305519624635157127_);}
	.st5{fill:#221D19;}
	.st6{fill:#241F1A;}
	.st7{fill:#242221;}
	.st8{fill:#A98458;}
	.st9{fill:#978273;}
	.st10{fill:#606271;}
	.st11{fill:#9E8466;}
	.st12{fill:#240F0C;}
	.st13{fill:#7B2116;}
	.st14{fill:#611E13;}
	.st15{fill:#2E1612;}
	.st16{fill:#5C1C0F;}
	.st17{fill:#271B17;}
	.st18{fill:#64401A;}
	.st19{fill:#38322E;}
	.st20{fill:#37312C;}
	.st21{fill:#5D3F23;}
	.st22{fill:#2E2A29;}
	.st23{fill:#C83226;}
	.st24{fill:#D42D25;}
	.st25{fill:#672316;}
	.st26{fill:#93281E;}
	.st27{fill:#521C10;}
	.st28{fill:#821818;}
	.st29{fill:#ED3624;}
	.st30{fill:#7E1716;}
	.st31{fill:#D12D25;}
	.st32{fill:#5B1C0F;}
	.st33{fill:#E13225;}
	.st34{fill:#B32924;}
	.st35{fill:#ED3724;}
	.st36{fill:#E23125;}
	.st37{fill:#7F2920;}
	.st38{fill:#1B3921;}
	.st39{fill:#A5ABA7;}
	.st40{fill:#C4B6B5;}
	.st41{fill:#782F22;}
	.st42{fill:#8E897C;}
	.st43{fill:#ABADA4;}
	.st44{fill:#DD3226;}
	.st45{fill:#9B1F1F;}
	.st46{fill:#CC3127;}
	.st47{fill:#9C1E1F;}
	.st48{fill:#78241C;}
	.st49{fill:#156333;}
	.st50{fill:#16291A;}
	.st51{fill:#C1C6C5;}
	.st52{fill:#9D948C;}
	.st53{fill:#4E231F;}
</style>
<g id="Layer_3">
	<g>
		<path class="st0" d="M29.8,144.5c0,4.9-1.3,8.7-3.8,11.5c-2.6,2.7-6.1,4.1-10.7,4.1c-2.9,0-5.4-0.6-7.6-1.9
			c-2.2-1.3-3.9-3.1-5.1-5.5c-1.2-2.4-1.8-5.1-1.8-8.2c0-4.9,1.3-8.7,3.8-11.4c2.5-2.7,6.1-4.1,10.8-4.1c4.4,0,7.9,1.4,10.5,4.2
			C28.5,135.9,29.8,139.7,29.8,144.5z M7.5,144.5c0,6.9,2.6,10.4,7.8,10.4c5.2,0,7.7-3.5,7.7-10.4c0-6.9-2.6-10.3-7.8-10.3
			c-2.7,0-4.7,0.9-5.9,2.7C8.2,138.6,7.5,141.1,7.5,144.5z"/>
		<path class="st0" d="M44.3,159.5l-11.6-30h6.9l6.2,17.4c1.1,2.9,1.7,5.3,1.9,7.1h0.2c0.2-1.3,0.8-3.7,1.9-7.1l6.2-17.4H63
			l-11.7,30H44.3z"/>
		<path class="st0" d="M81,160.1c-4.8,0-8.5-1.4-11.2-4.1c-2.7-2.7-4-6.5-4-11.2c0-4.9,1.2-8.8,3.7-11.6c2.5-2.8,5.9-4.2,10.3-4.2
			c4,0,7.2,1.2,9.6,3.6c2.3,2.4,3.5,5.7,3.5,9.9v3.4H72.5c0.1,2.9,0.9,5.2,2.4,6.7c1.5,1.6,3.6,2.3,6.4,2.3c1.8,0,3.5-0.2,5-0.5
			c1.6-0.3,3.2-0.9,5-1.7v5.2c-1.6,0.7-3.2,1.3-4.8,1.6C84.9,159.9,83,160.1,81,160.1z M79.8,133.8c-2.1,0-3.7,0.6-5,1.9
			c-1.2,1.3-2,3.2-2.2,5.6h13.9c0-2.5-0.6-4.4-1.8-5.6C83.5,134.4,81.8,133.8,79.8,133.8z"/>
		<path class="st0" d="M115.8,129c1.3,0,2.4,0.1,3.2,0.3l-0.6,5.9c-0.9-0.2-1.9-0.3-2.9-0.3c-2.6,0-4.7,0.8-6.3,2.5
			c-1.6,1.7-2.4,3.8-2.4,6.5v15.7h-6.5v-30h5.1l0.9,5.3h0.3c1-1.8,2.3-3.2,4-4.3C112.1,129.5,113.9,129,115.8,129z"/>
		<path class="st0" d="M145.2,151c0,2.9-1.1,5.2-3.3,6.7s-5.3,2.3-9.4,2.3c-4.1,0-7.3-0.6-9.8-1.8v-5.5c3.6,1.6,6.9,2.4,10,2.4
			c4,0,6-1.2,6-3.6c0-0.8-0.2-1.4-0.7-1.9s-1.2-1-2.2-1.6c-1-0.5-2.4-1.2-4.2-1.8c-3.5-1.3-5.9-2.7-7.2-4c-1.2-1.3-1.9-3.1-1.9-5.2
			c0-2.6,1.1-4.6,3.2-6c2.1-1.4,5-2.1,8.6-2.1c3.6,0,7,0.7,10.2,2.1l-2.1,4.8c-3.3-1.3-6.1-2-8.3-2c-3.4,0-5.1,1-5.1,2.9
			c0,0.9,0.4,1.7,1.3,2.4c0.9,0.7,2.8,1.5,5.9,2.7c2.5,1,4.4,1.8,5.5,2.6c1.1,0.8,2,1.7,2.5,2.8C145,148.3,145.2,149.5,145.2,151z"
			/>
		<path class="st0" d="M179.2,159.5h-6.5v-18.5c0-2.3-0.5-4-1.4-5.2c-1-1.1-2.5-1.7-4.5-1.7c-2.7,0-4.8,0.8-6,2.4
			c-1.3,1.6-1.9,4.3-1.9,8v15h-6.5v-30h5.1l0.9,3.9h0.3c0.9-1.4,2.2-2.5,3.9-3.3c1.7-0.8,3.6-1.2,5.6-1.2c7.3,0,11,3.7,11,11V159.5z
			"/>
		<path class="st0" d="M201.6,160.1c-4.8,0-8.5-1.4-11.2-4.1c-2.7-2.7-4-6.5-4-11.2c0-4.9,1.2-8.8,3.7-11.6
			c2.5-2.8,5.9-4.2,10.3-4.2c4,0,7.2,1.2,9.6,3.6c2.3,2.4,3.5,5.7,3.5,9.9v3.4h-20.4c0.1,2.9,0.9,5.2,2.4,6.7s3.6,2.3,6.4,2.3
			c1.8,0,3.5-0.2,5-0.5c1.6-0.3,3.2-0.9,5-1.7v5.2c-1.6,0.7-3.2,1.3-4.8,1.6C205.5,159.9,203.7,160.1,201.6,160.1z M200.4,133.8
			c-2.1,0-3.7,0.6-5,1.9c-1.2,1.3-2,3.2-2.2,5.6h13.9c0-2.5-0.6-4.4-1.8-5.6C204.1,134.4,202.5,133.8,200.4,133.8z"/>
		<path class="st0" d="M234.2,160.1c-4.8,0-8.5-1.4-11.2-4.1c-2.7-2.7-4-6.5-4-11.2c0-4.9,1.2-8.8,3.7-11.6
			c2.5-2.8,5.9-4.2,10.3-4.2c4,0,7.2,1.2,9.6,3.6c2.3,2.4,3.5,5.7,3.5,9.9v3.4h-20.4c0.1,2.9,0.9,5.2,2.4,6.7s3.6,2.3,6.4,2.3
			c1.8,0,3.5-0.2,5-0.5s3.2-0.9,5-1.7v5.2c-1.6,0.7-3.2,1.3-4.8,1.6C238.2,159.9,236.3,160.1,234.2,160.1z M233,133.8
			c-2.1,0-3.7,0.6-5,1.9c-1.2,1.3-2,3.2-2.2,5.6h13.9c0-2.5-0.6-4.4-1.8-5.6C236.7,134.4,235.1,133.8,233,133.8z"/>
		<path class="st0" d="M263.8,160.1c-3.8,0-6.8-1.4-8.9-4.1c-2.1-2.7-3.2-6.5-3.2-11.4c0-4.9,1.1-8.8,3.3-11.5
			c2.2-2.7,5.2-4.1,9-4.1c4,0,7.1,1.5,9.2,4.4h0.3c-0.3-2.2-0.5-3.9-0.5-5.1v-10.9h6.5v42.2h-5.1l-1.1-3.9H273
			C270.9,158.6,267.9,160.1,263.8,160.1z M265.6,154.9c2.7,0,4.6-0.7,5.8-2.2c1.2-1.5,1.8-3.9,1.9-7.2v-0.9c0-3.8-0.6-6.5-1.9-8.1
			c-1.3-1.6-3.2-2.4-5.9-2.4c-2.3,0-4,0.9-5.3,2.7s-1.9,4.4-1.9,7.8c0,3.3,0.6,5.9,1.8,7.6C261.4,154,263.2,154.9,265.6,154.9z"/>
		<path class="st0" d="M304.3,129c1.3,0,2.4,0.1,3.2,0.3l-0.6,5.9c-0.9-0.2-1.9-0.3-2.9-0.3c-2.6,0-4.7,0.8-6.3,2.5
			c-1.6,1.7-2.4,3.8-2.4,6.5v15.7h-6.5v-30h5.1l0.9,5.3h0.3c1-1.8,2.3-3.2,4-4.3C300.7,129.5,302.5,129,304.3,129z"/>
		<path class="st0" d="M328.8,129c1.3,0,2.4,0.1,3.2,0.3l-0.6,5.9c-0.9-0.2-1.9-0.3-2.9-0.3c-2.6,0-4.7,0.8-6.3,2.5
			c-1.6,1.7-2.4,3.8-2.4,6.5v15.7h-6.5v-30h5.1l0.9,5.3h0.3c1-1.8,2.3-3.2,4-4.3C325.1,129.5,326.9,129,328.8,129z"/>
	</g>
</g>
<g id="Layer_2">
	<circle class="st1" cx="167.8" cy="67.6" r="35.5"/>
	
		<linearGradient id="SVGID_1_" gradientUnits="userSpaceOnUse" x1="146.4711" y1="119.9654" x2="206.8096" y2="59.627" gradientTransform="matrix(1 0 0 -1 0 166)">
		<stop  offset="0" style="stop-color:#C395FC"/>
		<stop  offset="1" style="stop-color:#4F65F5"/>
	</linearGradient>
	<path class="st2" d="M167.3,108.5c23,0,41.7-18.7,41.7-41.7s-18.7-41.7-41.7-41.7s-41.7,18.7-41.7,41.7S144.3,108.5,167.3,108.5z
		 M195.1,70.3c0,13.4-10.9,24.3-24.3,24.3c-13.4,0-24.3-10.9-24.3-24.3c0-2.5,0.4-4.9,1.1-7.2c1.9,4.2,6.2,7.2,11.1,7.2
		c6.7,0,12.2-5.4,12.2-12.2c0-4.9-2.9-9.2-7.2-11.1c2.3-0.7,4.7-1.1,7.2-1.1C184.2,46,195.1,56.9,195.1,70.3z"/>
	<path class="st3" d="M195.1,70.3c0,13.4-10.9,24.3-24.3,24.3c-13.1,0-23.8-10.4-24.3-23.5c0,0.3,0,0.6,0,0.9c0,14.4,11.7,26,26,26
		c14.4,0,26-11.7,26-26s-11.7-26-26-26c-0.3,0-0.6,0-0.9,0C184.7,46.5,195.1,57.2,195.1,70.3z"/>
	
		<linearGradient id="SVGID_00000044164341625835051890000000989773748001140112_" gradientUnits="userSpaceOnUse" x1="149.9439" y1="133.8563" x2="149.9439" y2="99.1291" gradientTransform="matrix(1 0 0 -1 0 166)">
		<stop  offset="0" style="stop-color:#FFFFFF;stop-opacity:0.4"/>
		<stop  offset="1" style="stop-color:#FFFFFF;stop-opacity:0"/>
	</linearGradient>
	<path style="fill-rule:evenodd;clip-rule:evenodd;fill:url(#SVGID_00000044164341625835051890000000989773748001140112_);" d="
		M167.3,35.6c-17.3,0-31.3,14-31.3,31.3c0,1.9-1.6,3.5-3.5,3.5c-1.9,0-3.5-1.6-3.5-3.5c0-21.1,17.1-38.2,38.2-38.2
		c1.9,0,3.5,1.6,3.5,3.5C170.8,34.1,169.2,35.6,167.3,35.6z"/>
	<g>
		<path class="st5" d="M187.1,117.3c-2.2,0.1-3.7-1.4-5.3-2.3c-4.4-2.5-7.2-6.7-10.3-10.6c-0.5-0.6-1.3-1.5-0.2-2.4
			c1.8-0.6,3.7,0.2,5.5-0.4c1.7-0.6,3.3-1.1,5.2-0.9c0.2,0.7-0.4,0.9-0.8,1.2c-2.3,0.8-4.7,1.2-7.1,1.1c-1.2,0-1.6,0.3-0.8,1.4
			c2.3,2.9,4.4,6.1,7.5,8.3c1.4,1.2,3.2,1.9,4.7,3c0.5,0.4,1.1,0.7,1.6,1.1C187.2,116.9,187.2,117.1,187.1,117.3z"/>
		<path class="st6" d="M187.1,117.3c0-0.1,0-0.2,0-0.3c-0.3-0.6-0.7-1.2-1.3-1.6c-0.7-0.9-0.9-2.1-1.3-3.1c-0.3-1-0.5-2,1.1-2.1
			c1.4,0.1,2.4,1.2,4,1.4c-0.9-1.8-2.3-2.9-3.5-4.1c-1.8-1.8-2.8-4.3-4.9-5.9c0.3-0.3,0.6-0.6,0.9-0.8c2.4,1.4,3.2,4.2,5.3,6
			c1.1,1,2,2.3,3.2,3.3c0.7,0.6,1.3,1.4,0.6,2.4c-0.6,0.9-1.6,0.9-2.5,0.4c-1-0.5-1.9-1.2-3.2-1.4c0.5,1.5,1.1,2.7,2.1,3.6
			C188.4,116,188.3,116.8,187.1,117.3z"/>
		<path class="st7" d="M176.8,101.6c-1.8,0.9-3.7,0.2-5.5,0.4C173.1,101,175,102.1,176.8,101.6z"/>
		<path class="st8" d="M181.1,101.5c0.9,0,1.4,0.3,1.9,1.1c1,1.5,2.2,3,3.3,4.4c0.2,1.2,0.4,2.3-0.5,3.4c-1.8-0.2-1,1.1-1,1.8
			c-1.3,0.9-2.7,1-4.2,0.9c-3.7-2.2-5.8-6-8.4-9.2c-0.6-0.8-0.5-1.6,0.9-1.4C175.8,102.8,178.4,102.2,181.1,101.5z"/>
		<path class="st9" d="M180.6,113.1c1.3-0.5,2.7-0.9,4.2-0.9c0.5,1,0.9,2,1.4,3c0.2,0.2,0.3,0.5,0.1,0.7c-0.3,0.3-0.6,0.3-0.9,0.1
			C183.7,115.1,182,114.4,180.6,113.1z"/>
		<path class="st10" d="M185.3,116.1c0.5,0,0.9-0.2,0.8-0.8c0.8,0.3,1.6,0.6,0.9,1.8C186.4,116.8,185.8,116.6,185.3,116.1z"/>
		<path class="st11" d="M185.8,110.4c0-1.1-0.2-2.3,0.5-3.4c1.2,1.3,2.4,2.5,3.6,3.8c0.3,0.3,0.6,0.7,0.3,1.1
			c-0.3,0.5-0.9,0.4-1.3,0.2C187.8,111.6,186.8,111,185.8,110.4z"/>
	</g>
	<g>
		<path class="st12" d="M129.7,66.8c-3.2,0.3-4.3-0.4-4.7-3.5c-0.7-5.6-3.8-10.3-5.4-15.6c-0.5-1.5-0.9-3.1-1.3-4.6
			c-1.6-5.5,0.8-9.7,4.1-13.6c3.5-4.2,6.5-8.7,10.3-12.6c3.3-3.3,6.9-6.2,10.9-8.6c6.8-4.1,14.4-5.9,22-7.1
			c4.2-0.7,8.5-0.9,12.8-0.1c1.1,0.2,2.2,0.8,3,1.6c3.6,3.5,7.3,6.8,9.3,11.6c0.6,1.5,1.6,2.8,2.5,4.1c0.7,0.9,1.7,2,1.7,2.9
			c-0.1,3.4,2.2,2.5,3.9,2.3c7.5-0.7,14.9-1.2,22.2,1.5c4.4,1.6,6.7,4.8,6.3,9c0,0.3-0.3,0.5-0.4,0.8c-0.8-0.7-0.5-1.7-0.7-2.5
			c-0.7-2.3-1.8-4.3-4.3-5.1c-5.5-2.3-11.2-3.3-17.1-1.7c-3.1,0.1-6.1,0.5-9.1,0.6c-1.5,0.1-2.5-0.6-2.6-2.2c0-0.9-0.3-1.7-0.7-2.4
			c-2.3-3.3-3.7-7.1-6.1-10.3c-1.8-3.3-4.5-5.7-7.8-7.4c-3-0.9-6-0.8-9.1-0.4C163.7,4.1,158,5,152.5,6.7c-4.7,1.4-8.9,3.5-12.8,6.5
			c-4.2,2.3-7,6.2-9.9,9.8c-2.5,3-4.6,6.3-7,9.4c-3.1,4-3,8.1-1.7,12.6c1,3.6,2.8,6.8,3.7,10.4c0.2,1.8,1.2,3.4,1.6,5.2
			c0.4,1.2,0,2.5,0.6,3.6c0.3,0.6,0.8,0.8,1.4,0.9C129.3,65.3,129.8,65.8,129.7,66.8z"/>
		<path class="st13" d="M165.5,52.6c-0.8,0-1.6-0.1-2.2,0.5c-4.5,1-8.9,0.6-13.3-0.4c-0.9-1-2.2-1.1-3.4-1.4c-0.7-0.1-1.4-0.3-1.8-1
			c-0.1-0.3,0-0.5,0.2-0.7c0.2-0.1,0.4-0.2,0.7-0.3c3.2,0.4,6.4,1.3,9.7,1.5c6.6,0.5,12.8-0.9,18.5-4.4c5.1-3.5,9.7-7.7,15.2-10.6
			c0.7-0.4,1.4-0.9,2.3-0.9c1,0.1,1.9-1,2.9-0.4c0.3,0.4,0.3,0.9,0.1,1.3c-0.9,0.7-2,1-2.9,1.6c-4.4,2.6-8.6,5.5-12.5,8.8
			c-3.1,2-6.2,3.9-9.6,5.1C168,51.9,166.8,52.3,165.5,52.6z"/>
		<path class="st14" d="M144.8,49.8c0,0.1,0,0.3,0,0.4c-0.4,1.5-1.5,0.8-2.3,0.8c-2,0.2-2.8,2-3.9,3.2c-3.6,3.7-6.7,7.7-8.9,12.5
			c-0.4-1.8-2.7-0.6-3.2-2.2c1-0.3,1.8-0.8,2.4-1.8c2.2-3.3,4.6-6.5,7.3-9.5c0.5-0.6,1-1.1,1.3-1.9c0.4-0.7,0.9-1.3,1.6-1.6
			c1.4-0.5,2.2-1.8,3.3-2.7c0.5-0.4,1.1-1,1.8-0.6c0.7,0.4,0.6,1.1,0.3,1.6C144.2,48.8,144.6,49.3,144.8,49.8z"/>
		<path class="st15" d="M191.3,37.3c0.8-0.7,1.7-1.1,2.8-1.4c1-0.5,1.7,0.1,2.1,0.8c1.6,3,4.1,2.6,6.7,2c1.7-0.8,3.7-0.4,5.4-1.3
			c0.7-0.2,1.4-0.3,2-0.5c0.5-0.1,0.9-0.2,1.4-0.2c0.9,0,1.8-0.1,2.7-0.4c1,0.1,2.6-0.7,2.2,1.5c0,0.1,0.5-0.1,0.7,0
			c0.4,0.1,0.7,0.2,0.8,0.7c-6.1-0.1-11.9,1.5-17.8,2.5c-2.1,0.3-3.3-0.5-4.1-2.2c-0.9-1.9-2.1-3.1-4.2-1.5
			C191.7,37.5,191.5,37.5,191.3,37.3z"/>
		<path class="st16" d="M218.1,38.6c-1.6,0.2-2-2.3-3.7-1.7c0.1-1.1,1.1-0.9,1.7-1c1.7-0.2,3.3-0.6,4.8-1.2c3.2-1.2,3.4-2.4,1.1-4.8
			c-0.4-0.5-1-1-0.8-1.8c1.6-0.6,2.3,0.7,3,1.6c0.5,0.7,0.8,0.1,1.1,0.1c2.2,3.5,1.5,5.6-2.3,6.8c-0.5,0.2-1,0.2-1.5,0.4
			c-0.4,0.1-0.8,0-1.1,0c-0.2,0-0.2-0.1-0.2-0.1c0.1,0.5,1.3-0.3,1.2,0.7C220.2,38,219.1,38.3,218.1,38.6z"/>
		<path class="st17" d="M142.5,51.1c0.7-0.5,1.8,0,2.3-0.8c0.5,0.4,1.1,0.6,1.8,0.5c0.7,1.4,2.4,0.4,3.2,1.4
			c3.4,0.9,6.9,1.8,10.5,0.9c0.9-0.2,2,0,3,0c-3.6,1.4-7.4,0.9-11.1,0.4c-2.5-0.3-5-0.9-7.5-1.3C143.9,52,143.1,51.7,142.5,51.1z"/>
		<path class="st18" d="M221.3,36.9c0.4-0.6,1.2-0.6,1.8-0.8c3.5-1.3,4.1-2.9,1.9-6.1c-1.3-0.8-2.6-1.5-2.8-3.3
			c3.9,1.3,4.7,4.4,4.7,8c0.1,0.1,0,0.3-0.1,0.3C225.2,36.3,223.5,37.4,221.3,36.9z"/>
		<path class="st19" d="M191.3,37.3c0.2,0,0.4,0,0.5,0.1c-4.4,2.8-8.8,5.8-12.9,9.1c-0.2-0.1-0.2-0.1-0.2-0.2c0-0.1,0.1-0.1,0.1-0.1
			C182.6,42.5,186.8,39.7,191.3,37.3z"/>
		<path class="st20" d="M178.9,46.1c0,0.1,0,0.2,0,0.4c-3,2.2-6.1,4.1-9.7,5.1c-0.2-0.1-0.2-0.2-0.2-0.3c0.1-0.1,0.1-0.1,0.2-0.1
			C172.6,49.8,175.7,47.9,178.9,46.1z"/>
		<path class="st21" d="M221.3,36.9c2.1,0.2,3.7-1.1,5.4-1.9c-1.2,2.2-3.6,2-5.5,2.7c-0.5-0.2-0.9-0.4-1.6-0.7
			C220.4,36.9,220.8,36.9,221.3,36.9z"/>
		<path class="st22" d="M169.2,51.2c0,0.1,0,0.3,0,0.4c-1.2,0.5-2.3,1.3-3.8,1C166.6,51.8,168,51.5,169.2,51.2z"/>
		<path class="st23" d="M139.3,50.3c-0.6,0.3-1,0.8-1.4,1.4c-3.3,3.7-6.4,7.5-9.2,11.7c-0.3,0.5-0.8,0.8-1.4,0.5
			c-0.6-0.3-0.9-0.8-0.9-1.5c0.1-1.3-0.2-2.4-0.8-3.5c-0.4-1.2-0.9-2.4-1.4-3.6c-1.1-3.2-2.6-6.2-3.6-9.4c-1.6-5-1.7-9.6,1.8-14.1
			c4.9-6.3,9.3-13.1,15.7-18.2c0.4-0.3,0.8-0.5,1.2-0.7c0.1,0.2,0.2,0.4,0.2,0.6c-0.3,0.7-0.9,1.1-1.4,1.7c-1.1,1.1-2.2,2.2-3.3,3.4
			c-5.1,5.1-9.2,10.9-12.7,17.2c-1.2,2.2-0.9,4.7-0.4,7c1,5.7,3.9,10.8,5.9,16.2c0.5,1.2,1.1,1,1.9,0.3c0.9-0.9,1.6-1.9,2.4-2.8
			c3-3.8,6.3-7.3,10.1-10.3c0.3-0.1,0.7-0.1,1,0C142.6,48.1,140.7,49,139.3,50.3z"/>
		<path class="st24" d="M139.3,13.3c0-0.2,0-0.4,0-0.5c7.7-6.3,17-8.2,26.5-9.6c2.6-0.4,5.1-1,7.7-0.9c1.8,0.1,3.6,0.3,5.4,0.9
			c0.7,0.5,1.8,1,1.5,2c-0.3,1-1.5,0.9-2.4,0.9c-3.6,0-7.3,0.2-10.8,1.2c-1,0.1-1.9,0.7-2.9,0.2c-0.3-1.3,0.8-1.4,1.5-1.8
			c0.9-0.5,2.1-0.5,3.2-1.4c-5.5,0.3-10.5,1.7-15.4,3.1c-3.9,1.1-7.7,2.4-11.1,4.8C141.6,12.8,140.6,13.7,139.3,13.3z"/>
		<path class="st25" d="M166.9,6.8c4.2-1.7,8.8-1.2,13.2-1.5c0-1.1-1-1.4-1.2-2.2c3,1.9,5.9,3.9,7.4,7.4c-0.9,0.3-1.2-0.4-2-1
			c1,2.4,2.2,4.4,2.9,6.6c-0.1,1.7,1,3.6-1.2,4.7c-0.4-0.2-0.5-0.5-0.7-0.9c-0.1-1.2-0.3-2.3-0.6-3.5c-0.3-1.4-1-2.6-1.6-3.9
			c-0.7-1.6-1.5-3.2-3.1-4.1c-1.5-1.4-3.3-1-5-0.9c-4,0.3-7.8,1.1-11.6,2.5c-1.5,0.5-2.9,1-4.4,1.3c-2.2-0.9-0.5-1.7,0.2-2
			c1.5-0.7,3-1.4,4.7-1.6C165,7.6,166,7.3,166.9,6.8z"/>
		<path class="st26" d="M186.7,15.7c-1.1-2.3-2.2-4.6-3.4-7.1c1.8,0,1.9,1.7,3,2c3.1,3.4,4.6,7.9,7.2,11.7c0,0.1,0.1,0.1,0.1,0.2
			c-0.5,3.6,2,3.1,4.1,2.8c2.4-0.3,4.7-0.3,7.1-0.4c4.2-1,8.2-0.1,12.3,0.9c0.7,0.2,1.3,0.4,1.6,1.1c-0.1,0.3-0.2,0.5-0.5,0.6
			c-2.2,0.5-4.2-0.6-6.3-0.8c-4.5-0.5-9-0.1-13.6-0.2c-2.1-0.2-4.2-0.1-6.2,0.9c-0.2,0.1-0.5,0.1-0.7,0.1c-1.1-0.2-2.1,0-3.1,0.3
			c-0.8,0.3-1.6,0.5-2.4,0c-0.3-0.3-0.4-0.6-0.3-1c0.2-0.5,0.6-0.7,0.9-1c1-0.6,2.1-0.9,3.2-1.1c2.1-0.4,2.6-1.5,1.5-3.4
			c-0.5-0.8-1.2-1.4-1.6-2.2c-0.7-1.3-0.8-3-2.5-3.7C187,15.5,186.9,15.6,186.7,15.7z"/>
		<path class="st27" d="M218.6,27.1c-4.4-1.8-9.1-2.3-13.9-2.3c6.1-1.9,11.9-0.9,17.5,1.8c0.9,1.1,1.9,2.2,2.8,3.3
			c-0.1,1-0.5,0.6-1,0.2c-0.9-0.7-1.4-2-2.8-2C220,28.7,219.3,27.8,218.6,27.1z"/>
		<path class="st28" d="M126,58.6c0.7,1,0.9,2.1,0.9,3.3c0,0.7-0.1,1.5,0.8,1.7c0.8,0.1,0.9-0.7,1.2-1.2c2.8-3.7,5.3-7.7,9-10.7
			c-1.2,2.7-3.7,4.4-5.2,6.9c-1.2,1.9-3,3.5-3.9,5.6c-0.6,1.3-1.5,0.7-2.3,0.5c-0.9-1.3-0.4-2.8-0.5-4.1
			C125.7,59.8,125.6,59.2,126,58.6z"/>
		<path class="st14" d="M126,58.6c0,0.6,0,1.3,0,1.9c-0.8-1.7-1.8-3.3-1.7-5.2C125.5,56,125.6,57.4,126,58.6z"/>
		<path class="st29" d="M191.3,27c0.2,0,0.4,0,0.6,0c1.9-0.9,4-0.9,6-1.2c3.9,0,7.9-0.1,11.8,0c0.8,0,1.7-0.2,2.4,0.4
			c1.3,0.7,2.8,0.7,4.1,1.1c0.8,0.2,1.6,0.5,1.5,1.4c-0.1,0.9-0.9,1.2-1.7,1.1c-5.5-0.5-10.9,0.2-16.3,1.5c-2.4,0.6-4.6,1.5-6.7,2.8
			c-0.4,0.6-1,0.9-1.6,1.3c-2,0.4-3.5,1.7-5.1,2.7c-4,2.7-7.9,5.6-11.9,8.4c-7.6,4.2-15.7,5.8-24.2,3.7c-1.4-0.4-3.4-0.4-3.8-2
			c-0.4-1.6,1.6-2.3,2.7-3.1c4.8-3.7,10.4-6,15.8-8.7c2.3-1.1,4.7-2.3,6.9-3.6c0.7-0.5,1.4-0.9,2.3-1.2c5-2.1,10.2-3.1,15.4-4.6
			C190,27,190.6,26.9,191.3,27z"/>
		<path class="st28" d="M173.9,32.2c-0.6,0.3-1.2,0.6-1.8,0.9c-6.8,3.5-13.9,6.4-20.4,10.3c-1.7,1-3.2,2.4-4.8,3.5
			c-1,0.7-1.1,1.8-1.4,2.8c-0.2,0-0.4,0-0.5,0.1c-0.9-0.2-1.7-0.5-0.9-1.7c0.3-0.4,0.7-1,0.1-1.3c-0.5-0.3-0.9,0.4-1.3,0.7
			c-1.2,0.9-1.8,2.5-3.5,2.7c1.2-1.4,2.5-2.7,3.7-4.1c0.4-1.6,1.9-2.2,3-3c6.6-4.7,14-7.9,21.3-11.3c1.4-0.6,2.7-1.6,4.3-1.7
			c3.6-1,7.1-2.4,10.7-3.3c1.1-0.3,2.3-1.1,3.5-0.2c0,0.3,0,0.6,0,0.9c-0.5,1.4-1.9,1.4-2.9,1.5C179.7,29.8,176.7,30.8,173.9,32.2z"
			/>
		<path class="st30" d="M191.3,35.5c0.3-0.4,0.7-0.9,1-1.3c6.9-3.9,14.5-4.8,22.2-4.6c1.6,0,3.3,0.2,4.9,0.9
			c0.8,0.4,1.9,0.7,1.6,1.9c-0.4,1.2-1.6,0.9-2.5,0.8c-5.5-0.3-11.1-0.7-16.6,0.4c-4,0.8-4.1,1.2-2.6,4.8c-1.4,0.8-2,0.5-2.5-1.6
			c-0.4-1.6-1.1-2.2-2.6-2.1C193.1,34.6,192.5,35.8,191.3,35.5z"/>
		<path class="st31" d="M145.4,49.8c-1.3-1.9,0.5-2.6,1.5-3.4c3.4-2.8,7.2-4.8,11.1-6.8c4-2,8.1-3.9,12.1-5.9c0.6-0.3,1.2-0.6,2-0.5
			c-1.6,1.7-3.7,2.6-5.8,3.4c-4.9,1.9-9.4,4.7-14,7c-1.8,0.9-3.4,2.3-5,3.6c-0.8,0.6-1.1,1.1,0.3,1.7c6.8,3,13.6,2.2,20.3,0.3
			c2.2-0.6,4.1-2.4,6.5-2.6c-2.5,2.6-6,3.2-9.3,4.1C158.4,52.6,151.9,51.3,145.4,49.8z"/>
		<path class="st32" d="M194.1,34.6c1.7-1.1,2.8-1.1,3,1.3c0.1,1.2,0.3,2.7,2.1,2.8c0.1,0,0.2,0,0.3-0.1c1.1,0,2.3-0.4,3.3,0.5
			c-3.3,1.2-5,0.8-7-2c-0.5-0.6-0.9-1.2-1.8-1.3C194.1,35.5,194.1,35,194.1,34.6z"/>
		<path class="st14" d="M149.9,52.2c-0.7,0-1.5-0.1-2.2,0c-1.2,0.1-1.1-0.6-1-1.4C147.7,51.4,149.3,50.5,149.9,52.2z"/>
		<path class="st33" d="M211.6,37.3c-0.5,0-0.9,0-1.4,0c-2.4,0.2-4.8,0.9-7.2,1.2c-0.7,0.1-1.4,0.2-2,0.2c-1.8,0-2.6-1.2-2.9-2.7
			c-0.4-1.7,1-2.2,2.2-2.4c5.8-1.4,11.8-1.3,17.7-0.8c0.9,0.1,2,0.1,2,1.4c0,1.2-1.2,1.2-2,1.5C215.9,36.3,213.6,36.2,211.6,37.3z"
			/>
		<path class="st34" d="M211.6,37.3c0.5-1.3,1.7-1.2,2.7-1.3c1.5-0.1,2.9-0.5,4.2-0.9c0.5-0.2,1.2-0.2,1.1-0.9
			c-0.1-0.6-0.5-0.9-1.1-1c-0.9-0.1-1.8-0.4-2.7-0.4c-4.9-0.1-9.8-0.3-14.6,0.9c-1.4,0.3-3.2,0.6-2.7,2.6c0.4,2,1.9,2.3,3.8,1.9
			c2.1-0.5,4.2-0.8,6.3-1.2c0.6-0.1,1.2-0.3,1.7,0.4c-0.4,0.8-1.2,0.4-1.8,0.5c-3.1,0.5-6.1,1.6-9.2,0.9c0,0,0,0,0,0
			c-0.3-0.4-0.7-0.8-1-1.3c-1.3-2.2-0.9-3.4,1.5-4.1c6.1-1.7,12.4-1.2,18.7-0.9c0.1,0,0.3,0.1,0.4,0.1c0.6,0,1.5,0.5,1.8-0.4
			c0.4-1-1-0.7-1.2-1.3c0.6-1,2.2,0.1,2.6-1.3c0.1-0.1,0.2-0.1,0.2-0.2c1,0.9,2.5,1.6,2.1,3.2c-0.5,1.7-2.1,2.3-3.7,2.8
			c-2.1,0.6-4.2,1-6.4,1.5C213.5,37.4,212.5,37.4,211.6,37.3z"/>
		<path class="st30" d="M199.2,38.7c3.1,0.4,6.1-1.1,9.2-0.9c-1.6,1.3-3.8,0.6-5.5,1.4C201.6,39,200.3,39.7,199.2,38.7z"/>
		<path class="st34" d="M218.6,27.1c1.1-0.1,1.7,0.9,2.7,1c0.3,0.4,0.7,0.9,1,1.3c0,0-0.1,0.2-0.1,0.2c-2,0.3-3.3-0.6-4.1-2.4
			C218.2,27.2,218.4,27.2,218.6,27.1z"/>
		<path class="st35" d="M142.1,46.1c-2.5,2.6-4.9,5.2-7.5,7.7c-2,1.9-3.2,4.5-5.3,6.3c-0.8,0.6-1.5,1.1-1.9-0.2
			c-1.5-5.1-4.3-9.7-5.7-14.9c-1.4-5.1-0.9-9.5,2.1-13.6c3.4-4.7,6.4-9.7,10.9-13.5c2.1-1.5,2.1-1.6,3.5,0.8
			c0.3,0.6,0.8,0.9,1.3,1.1c3.4,1.8,5.1,4.8,6.3,8.3c0.7,3.5,1.5,7,3.5,10.1c1,1.6,0.2,3-1.1,3.7C146,43,144.1,44.7,142.1,46.1z"/>
		<path class="st35" d="M139.3,13.3c3.6-1.8,6.9-4.4,10.9-5.5c6.1-1.8,12.2-3.5,18.5-4.1c0.5-0.1,1.4-0.4,1.6,0.4
			c0.2,0.8-0.8,0.7-1.2,1c-1.6,0.9-3.6,0.7-4.9,2.2c-0.5,0.9-1.5,0.6-2.2,1c-2.8-0.1-5,1.5-7,3c-2.8,2.1-3.1,4.5-1.4,7.7
			c1.3,2.6,3,5,4.4,7.5c1.2,2.1,3,3.7,5.7,3.8c0.6,0,1.3,0.1,1.5,0.8c0.3,0.8-0.3,1.3-0.8,1.8c-0.2,0.2-0.5,0.4-0.7,0.5
			c-2.9,1.4-5.9,2.8-8.8,4.2c-2,1-2.7,0.4-2.9-1.9c0-0.2,0-0.3,0-0.5c-2.1-3.5-2.1-7.9-5-11c-1.2-1.2-1.7-2.9-3-4.1
			c-1.5-1.3-2.9-2.5-5-2.8c-1.7-0.2-2-1.3-1-2.8C138.3,14.1,138.7,13.6,139.3,13.3z"/>
		<path class="st36" d="M144.4,19.8c2.1,3.3,5.4,5.8,5.9,10.1c0.1,1.2,1,2.1,1.4,3.1c0.3,0.8,0.8,1.5,1,2.3c0.4,2.4,0.8,3,2.8,1.5
			c2.6-1.9,5.8-2.2,8.3-4.1c0.5-0.4,1.2-0.7,1.1-1.3c-0.1-0.8-1-0.5-1.5-0.5c-2.9,0-4.6-2.1-6-4.1c-1.6-2.4-2.7-5.1-4.3-7.5
			c-2.3-3.3-1.1-6.7,1.7-8.6c2.1-1.4,4.3-3.3,7.2-2.9c-0.1,1.2-1.2,1.1-1.9,1.4c-2,0.9-3.8,2.1-5,3.9c-1.4,1.9-1.2,4-0.1,6.1
			c1.4,2.5,3,5,4.7,7.3c1.4,1.9,2.9,2.7,5,1.7c6.2-2.9,13-3.9,19.4-6.3c0.6-0.3,1.1-0.6,1.7-0.9c1-0.1,1.3-1,1.8-1.6
			c0.7-0.6,1.4-1.3,2.4-0.5c0.7,1,1.8,1.8,2.2,3.1c0.6,1.8-0.1,3.2-2,3.3c-1.2,0.1-2.4,0.4-3.4,1c-5.3,0.9-10.3,2.6-15.2,4.6
			c-3,0.8-5.6,2.4-8.3,3.6c-6.4,2.8-12.7,6.1-18.3,10.2c-0.6,0.5-1.2,0.9-1.8,1.4c-0.3,0-0.6,0-0.9,0c1.3-1.9,2.9-3.3,5.1-4.1
			c2.2-0.9,2.4-2.2,1.3-4.2c-1.7-3-2.6-6.3-3.1-9.8c2.2,1.1,2.1,3.7,3.3,5.5c0.5,0.8,0.3,2.8,1.4,2.4c1.3-0.5,0.1-2-0.2-3
			c-1.4-4.2-3.5-8.1-5.8-11.9C143.9,20.6,144,20.1,144.4,19.8z"/>
		<path class="st24" d="M144.4,19.8c0,0.5,0,0.9,0,1.4c-1.4-0.1-1.9-1.7-3-2.1c-0.7-0.3-1.3-1.1-2-0.6c-0.7,0.5,0.4,1.2,0,1.9
			c-0.8,0-1.5-0.4-1.6-1.1c-0.3-2.5-1.5-2-3-1.2c0.9-1.3,2-2.3,3.2-3.2c-0.4,1.4-0.2,2.3,1.6,2.3C141.6,17,142.9,18.7,144.4,19.8z"
			/>
		<path class="st37" d="M154.5,19.4c-2.1-3.5-0.8-7.3,3-9.3c1.5-0.8,3.2-1.1,4.4-2.2c0.8,0.1,1.6,0,2.2-0.5c0.9-0.2,1.8-0.3,2.7-0.5
			c-2.1,1.5-4.6,1.8-6.9,2.7c-0.7,0.3-1.7,0.2-0.9,1.5c0.2,0.8-0.5,1-1,1.3c-1.5,1-2.6,2.3-2.9,4.1
			C154.3,17.2,155.5,18.6,154.5,19.4z"/>
		<path class="st38" d="M183.6,12.4c0.8,1.2,1.3,2.5,1.7,3.8c-0.8,1.2,0,2.9-1.3,4c-2.3,0.7-4.6,2-7.2,1.4c-0.6-0.3-1-0.7-1.2-1.3
			c0.4-1.2,1.5-1.1,2.4-1.3c0.9-0.3,2-0.3,2.9-0.7c1.2-0.5,1.7-1.3,1-2.5c-0.6-1.2-1.1-2.3-1.8-3.5c-0.7-1.3-1.8-1.9-3.4-1.7
			c-2,0.2-3.9,0.2-5.9,0.3c-0.7-0.6-1.5-0.5-2.3-0.3c-0.7,0.1-1.7,0.4-2.1-0.7c1.9-1.6,4.3-1.3,6.5-1.7c2,0,4.1-0.1,6.1,0.1
			c0.2,0,0.5,0.1,0.7,0.2C181.8,8.9,182.1,11.2,183.6,12.4z"/>
		<path class="st39" d="M173,8.6c-2.2,0.4-4.5,0.5-6.6,1.4c-0.7,0.9-1.5,1.1-2.5,0.7c0.5-0.8-0.4-0.8-0.7-1.2
			c4.7-2,9.7-2.6,14.7-2.7c1.2,0,2.2,0.3,2.9,1.4c0,0.8-0.4,0.7-0.9,0.5l0,0C177.5,8.3,175.3,8.4,173,8.6z"/>
		<path class="st40" d="M163.1,9.6c0.3,0.2,0.9-0.2,1.1,0.3c0,0.1-0.3,0.4-0.5,0.6c-0.6,1.6-2.2,1.7-3.5,2.3
			c-2.8,1.3-3.4,2.3-3.1,5.3c0,0.5-0.2,0.9-0.8,1c-1.4-0.3-1.6-1.3-1.4-2.5c-0.5-3.2,2.2-4.1,4.1-5.5C160.3,10.2,161.8,10,163.1,9.6
			z"/>
		<path class="st41" d="M185.9,21.2c-0.3,0.6-0.8,0.9-1.5,0.9c-1.4,0.3-2.7,0.9-4.1,0.1c-0.2-1.2,0.8-1.2,1.4-1.2
			c1.3-0.1,2.3-0.9,3.4-1.4c0.2,0,0.5,0.1,0.7,0.2c0,0.3,0,0.6,0,0.9c0.1,0.1,0.2,0.2,0.2,0.3C186,21.1,185.9,21.2,185.9,21.2z"/>
		<path class="st42" d="M179.8,8.7c0.3-0.2,0.6-0.3,0.9-0.5c1.7,0.9,2.3,2.5,2.9,4.1c-1.1,0.4-1.3-0.6-1.6-1.1
			C181.5,10.2,180.7,9.5,179.8,8.7z"/>
		<path class="st26" d="M185.9,21.2c0-0.2,0-0.3,0-0.5c1.8-1.4,0.6-3.3,0.8-5c0,0,0.1-0.1,0.1-0.1c1.8,1.1,1.6,2.6,0.9,4.2
			C187.3,20.5,186.8,21.2,185.9,21.2z"/>
		<path class="st43" d="M185.8,19.8c-0.1,0-0.3,0-0.4,0c-0.5-1-1.1,0.9-1.5-0.1c0.5-0.8,0.8-1.6,0.7-2.5c-0.1-0.6,0-1.1,0.8-1
			C185.5,17.4,185.7,18.6,185.8,19.8z"/>
		<path class="st44" d="M218.1,27.2c1.2,1,2.5,2,4.1,2.4c0.2,0.8,1.2,2.1-0.9,1.4c-0.5-0.2-1.2,0-1.8-0.1c-6.4-1.8-12.8-1-19.2,0.4
			c-2.8,0.6-5.1,2.3-7.9,2.8c1.2-1.3,2.8-2.2,4.4-2.6c6.3-1.6,12.7-3.1,19.3-2.2c0.6,0.1,1.2,0.1,1.3-0.6c0.1-0.5-0.3-0.9-0.9-1.1
			c-1.4-0.4-3-0.4-4.3-1.4C214.1,26.5,216.1,26.9,218.1,27.2z"/>
		<path class="st45" d="M173.9,32.2c2.2-2,5.1-2.5,7.8-3.1c1.5-0.3,2.9-0.7,4.2-1.5c1.9,0.4,3.5-1.7,5.5-0.6
			c-5.3,1.4-10.6,2.8-15.7,4.8C175,32.1,174.5,32.3,173.9,32.2z"/>
		<path class="st45" d="M171.5,30.9c1.3-1.5,3.2-1.6,4.9-2.1c3.4-1,6.7-2.6,10.3-2.5c-0.2,0.4-0.6,0.5-0.9,0.5
			c-4.2,0.8-8.1,2.2-12.1,3.6C173,30.5,172.3,31,171.5,30.9z"/>
		<path class="st46" d="M187.7,19.8c0-1.4,0.1-2.9-0.9-4.2c0-0.6-0.2-1.4,0.6-1.5c0.7-0.1,0.6,0.7,0.8,1.1c0.6,1.2,1.6,2.2,1.7,3.6
			C189,18.7,188.4,19.4,187.7,19.8z"/>
		<path class="st45" d="M197.9,25.8c-2,0.4-4,0.8-6,1.2C193.7,25.6,195.8,25.8,197.9,25.8z"/>
		<path class="st47" d="M139.3,20.2c-0.2-0.2-0.3-0.5-0.5-0.7c-0.3-0.5-1.1-0.8-0.6-1.5c0.5-0.8,1.3-0.6,2-0.3c1.6,0.8,3,2,4.1,3.4
			c3.1,3.9,4.7,8.5,6.4,13.1c0.4,1.1,0.8,2.5-0.7,2.8c-1.2,0.3-1.4-1-1.7-2c-0.7-2.5-1.7-4.9-3.1-7C144,24.9,142.5,22,139.3,20.2z"
			/>
		<path class="st48" d="M180.3,22.1c1.4,0,2.7,0,4.1,0c-2.8,1.7-5.9,2.3-9,3c-3.4,0.9-6.6,2-9.7,3.4c-3.2,1.3-4.7,0.8-6.7-2
			c-1.6-2.3-3.4-4.5-4.5-7.1c0.1-0.8,0-1.5-0.3-2.2c-0.3-0.9,0.3-0.8,0.8-0.6c0.6,0.7,0.2,1.9,1.2,2.4c1.9,1.9,2.9,4.4,4.6,6.5
			c0.7,1.1,1.8,1.5,3,1.9c3.6-0.9,7.2-2,10.5-3.7c1.1-0.4,2.4-0.4,3.4-1.1C178.6,22.3,179.3,21.7,180.3,22.1z"/>
		<path class="st49" d="M170.6,10.5c2.3-0.8,4.7-0.1,7-0.8c0.7-0.2,1.5,0.3,2,0.9c1.6,1.7,2.4,3.9,3.3,6c0.5,1.2-0.6,1.7-1.6,2.1
			c-1.8,0.8-4,0.4-5.7,1.5c-4,1.8-8.1,3.2-12.3,4.1c-1,0.2-2-0.4-2.6-1.2c-1.8-1.9-2.5-4.4-3-6.9c-0.1-0.6,0.1-1.3,0.6-1.7
			C162,11.9,166,10.2,170.6,10.5z"/>
		<path class="st50" d="M170.6,10.5c-3.7,0.6-7.3,1.7-10.6,3.5c-1.6,0.9-2.2,1.9-1.4,3.7c0.8,1.7,1.2,3.6,2.5,5.1
			c2,2.1,4.1,0.5,5.9-0.1c2.8-1,5.6-1.9,8.5-2.5c0.6,0,0.9,0.3,0.9,0.9c-0.4,1-1.3,1.2-2.2,1.5c-3.2,1.1-6.4,1.9-9.5,3.3
			c-1.4,0.6-3,0.9-4.2-0.5c-1.7-2.3-3.2-4.6-4-7.4c-0.8-2.9-0.3-4,2.3-5.3c1.5-0.8,3.3-1.1,4.7-2.2c0.9-0.2,1.8-0.3,2.6-0.5
			c1.1,0.2,2.1-0.1,3.1-0.3C169.9,9.6,171.1,9,170.6,10.5z"/>
		<path class="st51" d="M160.9,24.9c0.7,1.2,1.8,1.2,2.8,0.8c4.2-1.9,8.6-2.9,12.9-4.5c2.5,0.1,4.8-1,7.2-1.5
			c0.5,1.2,1.1-2.5,1.5,0.1c-1.2,1.8-3.5,1.4-5.1,2.3c-0.7,0.4-1.7,0.3-2.3,0.9c-1.3,0.6-2.8,0.4-4.1,1.1c-2.9,1-5.8,1.9-8.5,3.1
			c-0.6,0.3-1.1,0.5-1.8,0.2c-1.4,0.1-2.5-0.4-3.2-1.7C160.2,25.3,160.2,24.9,160.9,24.9z"/>
		<path class="st42" d="M173,8.6c2.3-0.6,4.6-0.8,6.8,0.1C177.5,8.7,175.3,8.7,173,8.6z"/>
		<path class="st52" d="M160.9,24.9c-0.2,0.3-0.3,0.6-0.5,1c-1.5-2.2-3.3-4.3-4.2-6.9c0.4-0.2,0.5-0.5,0.6-0.9
			C158.4,20.2,159.2,22.8,160.9,24.9z"/>
		<path class="st53" d="M163.7,27.5c3.4-1.2,6.5-3.2,10.2-3.6c0.2-0.2,0.4-0.1,0.5,0.1c-0.8,1.4-2.5,1.3-3.7,1.8
			c-1.9,0.8-3.8,1.4-5.7,2.2C164.3,28.2,163.8,28.5,163.7,27.5z"/>
		<path class="st41" d="M174.4,24c-0.2,0-0.3-0.1-0.5-0.1c1.3-0.6,2.7-0.9,4.1-0.9C177,23.9,175.6,23.9,174.4,24z"/>
	</g>
</g>
</svg>
